<?xml version="1.0" encoding="utf-8"?>
<!-- Generator: Adobe Illustrator 26.1.0, SVG Export Plug-In . SVG Version: 6.00 Build 0)  -->
<svg version="1.1" id="Layer_1" xmlns="http://www.w3.org/2000/svg" xmlns:xlink="http://www.w3.org/1999/xlink" x="0px" y="0px"
	 viewBox="0 0 500 500" style="enable-background:new 0 0 500 500;" xml:space="preserve">
<style type="text/css">
	.st0{clip-path:url(#SVGID_00000047766438025162599280000014360110695018290056_);fill:#F8FBFF;}
	.st1{clip-path:url(#SVGID_00000047766438025162599280000014360110695018290056_);}
	.st2{fill:#D9E8FF;}
	.st3{opacity:0.55;fill:#D9E8FF;}
	.st4{fill:#ACC9F9;}
	.st5{fill:#FFFFFF;}
	.st6{fill:#95BAEF;}
	.st7{fill:#92A7F4;}
	.st8{fill:#E2F0FB;}
	.st9{fill:none;stroke:#A0D0D8;stroke-width:0.7928;stroke-miterlimit:10;}
	.st10{display:none;}
	.st11{display:inline;}
	.st12{fill:none;stroke:#9999EF;stroke-width:0.3565;stroke-miterlimit:10;}
	.st13{opacity:0.2412;fill:url(#SVGID_00000010271051516198045810000016111057196342703006_);}
	.st14{opacity:0.2412;fill:url(#SVGID_00000039833003827098678230000017761480158274546318_);}
	.st15{fill:none;stroke:#9999EF;stroke-width:0.4943;stroke-miterlimit:10;}
	.st16{fill:none;stroke:#FFFFFF;stroke-width:0.386;stroke-miterlimit:10;}
	.st17{fill:#9999EF;stroke:#9999EF;stroke-width:0.6887;stroke-miterlimit:10;}
	.st18{fill:#9999EF;}
	.st19{fill:none;stroke:#FFFFFF;stroke-width:1.1966;stroke-linecap:round;stroke-linejoin:round;stroke-miterlimit:10;}
	.st20{opacity:0.3;fill:#9999EF;}
	.st21{opacity:0.2;fill:#9999EF;}
	.st22{opacity:0.43;}
	.st23{opacity:0.3;}
	.st24{opacity:0.7;}
	.st25{fill:#B8E2FF;}
	.st26{fill:#BDD5FF;}
	.st27{fill:#8ABAFF;}
	.st28{fill:#DEEBFF;}
	.st29{opacity:0.5;}
	.st30{opacity:0.2;clip-path:url(#SVGID_00000000934034661481774040000008170116462181401522_);fill:#5275A0;}
	.st31{fill:#BDD0FF;}
	.st32{fill:#222B70;}
	.st33{fill:#285BAD;}
	.st34{fill:#7C98E5;}
	.st35{fill:#3B2E7A;}
	.st36{fill:#F2A181;}
	.st37{fill:#FFBE9D;}
	.st38{fill:#CECAFF;}
	.st39{fill:#A3BCEF;}
	.st40{fill:#E8F6F7;}
	.st41{fill:#D0E0E2;}
	.st42{fill:#153351;}
	.st43{fill:#1F3A71;}
	.st44{opacity:0.35;}
	.st45{fill:#5275A0;}
	.st46{fill:#AABDE2;}
	.st47{fill:#E1E8F9;}
</style>
<g>
	<defs>
		<rect id="SVGID_1_" width="500" height="500"/>
	</defs>
	<clipPath id="SVGID_00000011727771313391428670000012558751013744202429_">
		<use xlink:href="#SVGID_1_"  style="overflow:visible;"/>
	</clipPath>
	
		<rect style="clip-path:url(#SVGID_00000011727771313391428670000012558751013744202429_);fill:#F8FBFF;" width="500" height="500"/>
	<g style="clip-path:url(#SVGID_00000011727771313391428670000012558751013744202429_);">
		<path class="st2" d="M324.8-13c-69.1,15.9-75.8,121.4-82.6,149.5c-5.2,21.8-17.7,42.1-36.6,55.6c-22.1,15.8-51,19.2-76.3,27.4
			c-22.5,7.3-47.4,20-55.7,43.8c-5.8,16.6-6.7,51.2-33.2,66.9c-8.9,5.3-24.8,10.3-28,21.8c-3.4,12.1,1.6,22.8,17.9,27.9
			c15.2,4.7,38.1-2.2,68.5,0c25.6,1.8-18.2,49.5,46.3,39.6c77.6-11.9,7.5,36.6,41.6,56.4c16.5,9.6,89.1,28,107.7,32.1
			c27,5.9,55.2,4,82.2-0.8c32.3-5.8,137.8,43.2,165.1-10.8C560.7,476.3,572.2,65,503.4,0C483.6-18.8,350.9-20.9,324.8-13"/>
	</g>
</g>
<g>
	<path class="st3" d="M369.3,358.6c0,2.9-47.2,5.3-105.5,5.3c-58.3,0-105.5-2.4-105.5-5.3s47.2-5.3,105.5-5.3
		C322,353.3,369.3,355.7,369.3,358.6z"/>
	<ellipse class="st3" cx="127.4" cy="327.4" rx="57.6" ry="5.3"/>
	<g>
		<path class="st4" d="M110.9,324.8c0,0-33.6,0-41.7,0c-8.1,0-6.8-9.7,15.8-5.4c-5.6-2.5-5.6-5.9-5.1-6.8c0.4-0.8,2-1.4,3-1.3
			c2.9,0.2,5.1,2,7.6,3.4c-4.6-3-7.4-8.4-7.2-13.9c0.1-1.5,0.4-3.1,1.5-4.1c1.2-1.1,3.3-1.9,4.9-1.6c3.1,0.6,8.7,5.7,10.9,7.9
			c-11.4-10.5-15.8-27-8.5-30.8c12.3-6.4,21.6,29.6,21.6,29.6s-6.1-27,4.1-27.2c10.3-0.2,1.9,31.4,1.9,31.4"/>
	</g>
	<path class="st5" d="M107.2,305.3c1.3,0,2.6,0.2,3.8,0.6c0.3-10,8.5-18.1,18.6-18.1c10.3,0,18.6,8.3,18.6,18.6c0,0.5,0,0.9-0.1,1.4
		c1.8-3,5.1-5.1,8.9-5.1c5.7,0,10.3,4.6,10.3,10.3c0,0.8-0.1,1.6-0.3,2.3c1.1-0.6,2.3-0.9,3.6-0.9c4.1,0,7.4,3.3,7.4,7.4
		c0,4.1-3.3,7.4-7.4,7.4c-4.1,0-58.3,0-63.5,0c-6.6,0-12-5.4-12-12C95.2,310.6,100.6,305.3,107.2,305.3z"/>
	<g>
		<g>
			<path class="st6" d="M381.1,332.7c3.6,0,6.5,2.9,6.5,6.5V183.1v0c0-3.6-2.9-6.5-6.5-6.5H188.9v156.1H381.1z"/>
			<path class="st4" d="M381,188.4c3.6,0,6.5-2.9,6.5-6.5V338v0c0,3.6-2.9,6.5-6.5,6.5H171.6V188.4H381z"/>
			<path class="st4" d="M172.1,343.9c-3.6,0-6.5,2.9-6.5,6.5V194.4v0c0-3.6,2.9-6.5,6.5-6.5h209.7v156.1H172.1z"/>
			<path class="st5" d="M172.1,201.6c-3.6,0-6.5-2.9-6.5-6.5v155.6l0,0c0,3.6,2.9,6.5,6.5,6.5h203.5V201.6H172.1z"/>
			<path class="st7" d="M172.5,189.4h209.4v-1.5H172.5c-3.8,0-6.8,3.1-6.8,6.8c0,3.8,3.1,6.8,6.8,6.8h203.2V200H172.5
				c-2.9,0-5.3-2.4-5.3-5.3S169.5,189.4,172.5,189.4z"/>
			<path class="st7" d="M380.7,177.3H189v-1.5h191.7c3.8,0,6.8,3.1,6.8,6.8c0,3.8-3.1,6.8-6.8,6.8H177.5v-1.5h203.2
				c2.9,0,5.3-2.4,5.3-5.3C386.1,179.7,383.7,177.3,380.7,177.3z"/>
			<g>
				<g>
					<rect x="179" y="248" class="st8" width="103.1" height="3.1"/>
				</g>
				<g>
					<rect x="179" y="253.8" class="st8" width="103.1" height="3.1"/>
				</g>
				<g>
					<rect x="179" y="259.6" class="st8" width="103.1" height="3.1"/>
				</g>
				<g>
					<rect x="179" y="265.4" class="st8" width="103.1" height="3.1"/>
				</g>
				<g>
					<rect x="179" y="271.2" class="st8" width="103.1" height="3.1"/>
				</g>
				<g>
					<rect x="179" y="277" class="st8" width="103.1" height="3.1"/>
				</g>
				<g>
					<rect x="179" y="282.8" class="st8" width="103.1" height="3.1"/>
				</g>
				<g>
					<rect x="179" y="288.6" class="st8" width="103.1" height="3.1"/>
				</g>
			</g>
			<g>
				<g>
					<rect x="179" y="300.9" class="st8" width="103.1" height="3.1"/>
				</g>
				<g>
					<rect x="179" y="306.7" class="st8" width="103.1" height="3.1"/>
				</g>
				<g>
					<rect x="179" y="312.5" class="st8" width="103.1" height="31"/>
				</g>
				<g>
					<rect x="179" y="347.2" class="st8" width="103.1" height="3.1"/>
				</g>
			</g>
			<g>
				<g>
					<rect x="291.9" y="300.9" class="st8" width="68.4" height="3.1"/>
				</g>
				<g>
					<rect x="291.9" y="306.7" class="st8" width="68.4" height="3.1"/>
				</g>
				<g>
					<rect x="291.9" y="289.6" class="st8" width="68.4" height="3.1"/>
				</g>
				<g>
					<rect x="291.9" y="283.8" class="st8" width="68.4" height="3.1"/>
				</g>
				<g>
					<rect x="291.9" y="312.5" class="st8" width="68.4" height="3.1"/>
				</g>
				<g>
					<rect x="291.9" y="318.3" class="st8" width="68.4" height="3.1"/>
				</g>
				<g>
					<rect x="291.9" y="324.1" class="st8" width="68.4" height="3.1"/>
				</g>
				<g>
					<rect x="291.9" y="329.9" class="st8" width="68.4" height="3.1"/>
				</g>
				<g>
					<rect x="291.9" y="335.6" class="st8" width="68.4" height="3.1"/>
				</g>
				<g>
					<rect x="291.9" y="341.4" class="st8" width="68.4" height="3.1"/>
				</g>
				<g>
					<rect x="291.9" y="347.2" class="st8" width="68.4" height="3.1"/>
				</g>
			</g>
			<g>
				<path class="st4" d="M185.7,236.6c-1.4-0.6-2.6-1.5-3.5-2.6l3.7-4.4c1.3,1.7,2.6,2.5,4.1,2.5c1,0,1.7-0.3,2.2-0.9
					c0.5-0.6,0.8-1.5,0.8-2.6v-10.2h-8.2v-5.2h14.9v15c0,3.1-0.8,5.4-2.3,6.9c-1.6,1.5-3.8,2.3-6.9,2.3
					C188.8,237.5,187.2,237.2,185.7,236.6z"/>
				<path class="st4" d="M204.2,213.2h11.3c2.6,0,4.9,0.5,6.9,1.5c2,1,3.6,2.4,4.7,4.1c1.1,1.8,1.7,3.9,1.7,6.3
					c0,2.4-0.6,4.5-1.7,6.3c-1.1,1.8-2.7,3.2-4.7,4.1c-2,1-4.3,1.5-6.9,1.5h-11.3V213.2z M215.2,231.7c2,0,3.7-0.6,4.9-1.7
					c1.2-1.2,1.9-2.8,1.9-4.8s-0.6-3.6-1.9-4.8c-1.2-1.2-2.9-1.7-4.9-1.7H211v13.1H215.2z"/>
				<path class="st4" d="M248.8,214.3c1.6,0.7,2.8,1.7,3.7,3.1s1.3,2.9,1.3,4.7c0,1.8-0.4,3.3-1.3,4.7c-0.9,1.3-2.1,2.3-3.7,3
					c-1.6,0.7-3.5,1.1-5.6,1.1h-4.1v6.2h-6.7v-23.8h10.9C245.4,213.2,247.2,213.6,248.8,214.3z M245.9,224.6
					c0.7-0.6,1.1-1.5,1.1-2.6c0-1.1-0.4-2-1.1-2.6c-0.7-0.6-1.7-0.9-3.1-0.9h-3.7v7h3.7C244.2,225.5,245.2,225.2,245.9,224.6z"/>
				<path class="st4" d="M259.5,234.6c-2-1.9-2.9-4.7-2.9-8.2v-13.2h6.7v13c0,3.8,1.5,5.7,4.5,5.7c3,0,4.5-1.9,4.5-5.7v-13h6.6v13.2
					c0,3.5-1,6.3-2.9,8.2c-2,1.9-4.7,2.9-8.2,2.9S261.5,236.5,259.5,234.6z"/>
			</g>
			<g>
				<rect x="291.9" y="248" class="st8" width="68.4" height="33.2"/>
			</g>
			<g>
				<rect x="304.7" y="209.2" class="st4" width="55.7" height="30.8"/>
			</g>
			<g>
				<line class="st9" x1="179" y1="243.3" x2="360.4" y2="243.3"/>
			</g>
			<g class="st10">
				<g class="st11">
					<path class="st5" d="M322,224.8c0-6.5,5.3-11.8,11.8-11.8c6.5,0,11.8,5.3,11.8,11.8c0,6.5-5.3,11.8-11.8,11.8
						C327.2,236.6,322,231.3,322,224.8z M323.2,224.8c0,5.8,4.7,10.6,10.6,10.6c5.8,0,10.6-4.7,10.6-10.6c0-5.8-4.7-10.6-10.6-10.6
						C327.9,214.3,323.2,219,323.2,224.8z"/>
				</g>
				<g class="st11">
					<path class="st5" d="M328.5,224.8c0-6.6,2.3-11.8,5.3-11.8c2.9,0,5.3,5.2,5.3,11.8c0,6.6-2.3,11.8-5.3,11.8
						C330.8,236.6,328.5,231.4,328.5,224.8z M329.6,224.8c0,6.2,2.1,10.6,4.1,10.6c1.9,0,4.1-4.3,4.1-10.6c0-6.2-2.1-10.6-4.1-10.6
						C331.8,214.3,329.6,218.6,329.6,224.8z"/>
				</g>
				<g class="st11">
					<rect x="322.6" y="224.2" class="st5" width="22.3" height="1.2"/>
				</g>
				<g class="st11">
					<g>
						<path class="st5" d="M333.7,220.5c6.5,0,8.7-2.3,8.8-2.4l-0.9-0.8l0.4,0.4l-0.4-0.4c0,0-2.1,2-8,2c-5.9,0-8-2-8-2l-0.9,0.8
							C325,218.2,327.2,220.5,333.7,220.5z"/>
					</g>
					<g>
						<path class="st5" d="M341.7,232.4l0.9-0.8c-0.1-0.1-2.4-2.4-8.8-2.4c-6.5,0-8.7,2.3-8.8,2.4l0.9,0.8c0,0,2.1-2,8-2
							C339.6,230.4,341.7,232.4,341.7,232.4z"/>
					</g>
				</g>
			</g>
			<g>
				<polyline class="st12" points="351.8,278.1 295.6,278.1 295.6,250.9 				"/>
				
					<linearGradient id="SVGID_00000121264443975013270840000015029952309863583361_" gradientUnits="userSpaceOnUse" x1="295.6273" y1="266.1491" x2="342.8753" y2="266.1491">
					<stop  offset="0" style="stop-color:#FFFFFF"/>
					<stop  offset="1" style="stop-color:#FFFFFF;stop-opacity:0"/>
				</linearGradient>
				<polygon style="opacity:0.2412;fill:url(#SVGID_00000121264443975013270840000015029952309863583361_);" points="295.6,270.3 
					307.7,259.7 310.9,263.9 315.5,254.2 318.7,262.3 322.6,257 328.1,266.8 338.3,256.9 342.9,265.1 342.9,278.1 295.6,278.1 				
					"/>
				
					<linearGradient id="SVGID_00000073688068843101643920000003961656497801033885_" gradientUnits="userSpaceOnUse" x1="315.5675" y1="259.132" x2="315.5675" y2="277.8899">
					<stop  offset="0" style="stop-color:#FFFFFF"/>
					<stop  offset="1" style="stop-color:#FFFFFF;stop-opacity:0"/>
				</linearGradient>
				<polygon style="opacity:0.2412;fill:url(#SVGID_00000073688068843101643920000003961656497801033885_);" points="295.6,267 
					307,272 315.4,254.8 320,267 327.5,259.1 335.5,267.7 335.5,278.1 295.6,278.1 				"/>
				<line class="st15" x1="349.5" y1="250.4" x2="357.5" y2="250.4"/>
				<line class="st15" x1="349.5" y1="251.7" x2="357.5" y2="251.7"/>
				<line class="st15" x1="349.5" y1="253.1" x2="357.5" y2="253.1"/>
				<line class="st15" x1="344.3" y1="250.4" x2="347.9" y2="250.4"/>
				<line class="st15" x1="344.3" y1="251.7" x2="347.9" y2="251.7"/>
				<line class="st15" x1="344.3" y1="253.1" x2="347.9" y2="253.1"/>
				<path class="st16" d="M298,262.4c1.9,0.8,3,2.4,3.9,4c0.9,1.6,1.6,3.3,3,4.6c1.4,1.3,3.7,2.1,5.6,1.4c1.7-0.7,2.5-2.3,3.1-3.7
					c1.7-4.3,3.1-8.8,3.9-13.3c0.1-0.7,0.2-1.4,0.6-2c0.4-0.6,1.1-1.1,1.9-1.1c0.9,0,1.7,0.6,2.3,1.2c4,4.1,5.7,9.5,9,13.9
					c0.7,0.9,1.5,1.8,2.7,1.9c1,0.1,1.9-0.4,2.7-0.9c2.4-1.4,4.5-3.2,6.1-5.2"/>
				<g>
					<path class="st17" d="M298.3,262.3c0,0.2-0.1,0.3-0.3,0.3c-0.2,0-0.3-0.1-0.3-0.3c0-0.2,0.1-0.3,0.3-0.3
						C298.2,262,298.3,262.1,298.3,262.3z"/>
					<path class="st17" d="M309.4,272.7c0,0.2-0.1,0.3-0.3,0.3c-0.2,0-0.3-0.1-0.3-0.3c0-0.2,0.1-0.3,0.3-0.3
						C309.2,272.4,309.4,272.6,309.4,272.7z"/>
					<path class="st17" d="M342.8,263.7c0,0.2-0.1,0.3-0.3,0.3c-0.2,0-0.3-0.1-0.3-0.3c0-0.2,0.1-0.3,0.3-0.3
						C342.7,263.4,342.8,263.5,342.8,263.7z"/>
					<path class="st17" d="M334.3,269.6c0,0.2-0.1,0.3-0.3,0.3c-0.2,0-0.3-0.1-0.3-0.3c0-0.2,0.1-0.3,0.3-0.3
						C334.2,269.3,334.3,269.4,334.3,269.6z"/>
					<path class="st17" d="M319.9,252.5c0,0.2-0.1,0.3-0.3,0.3c-0.2,0-0.3-0.1-0.3-0.3s0.1-0.3,0.3-0.3
						C319.8,252.2,319.9,252.4,319.9,252.5z"/>
				</g>
			</g>
		</g>
		<g>
			<g>
				<g>
					<path class="st18" d="M285.7,162.8c-1.2,2.9-4.4,4.3-7.3,3.1c-2.9-1.2-4.3-4.4-3.1-7.3c1.2-2.9,4.4-4.3,7.3-3.1
						C285.4,156.6,286.8,159.9,285.7,162.8z"/>
					<polyline class="st19" points="278,160 279.3,162.8 283.5,160.2 					"/>
				</g>
				<g>
					<path class="st18" d="M119.6,237.5c1,3-0.6,6.1-3.6,7.1c-3,1-6.1-0.6-7.1-3.6c-1-3,0.6-6.1,3.6-7.1
						C115.5,233,118.7,234.6,119.6,237.5z"/>
					<polyline class="st19" points="112,240.3 114.8,241.6 116.3,236.9 					"/>
				</g>
				<path class="st18" d="M431,274.1c0,1.1-0.9,2.1-2.1,2.1c-1.1,0-2.1-0.9-2.1-2.1c0-1.1,0.9-2.1,2.1-2.1
					C430.1,272,431,273,431,274.1z"/>
				<path class="st20" d="M260.6,140.4c0,1.1-0.9,2.1-2.1,2.1c-1.1,0-2.1-0.9-2.1-2.1c0-1.1,0.9-2.1,2.1-2.1
					C259.7,138.3,260.6,139.2,260.6,140.4z"/>
				<path class="st18" d="M55.7,338.7c0,1.8-1.5,3.3-3.3,3.3c-1.8,0-3.3-1.5-3.3-3.3c0-1.8,1.5-3.3,3.3-3.3
					C54.3,335.4,55.7,336.9,55.7,338.7z"/>
				<path class="st20" d="M439,237.3c0,2.8-2.3,5.1-5.1,5.1c-2.8,0-5.1-2.3-5.1-5.1c0-2.8,2.3-5.1,5.1-5.1
					C436.8,232.2,439,234.5,439,237.3z"/>
				<path class="st20" d="M209.5,143.1c0,2.8-2.3,5.1-5.1,5.1c-2.8,0-5.1-2.3-5.1-5.1c0-2.8,2.3-5.1,5.1-5.1
					C207.2,138.1,209.5,140.3,209.5,143.1z"/>
				<path class="st20" d="M134,378.6c0,2.8-2.3,5.1-5.1,5.1c-2.8,0-5.1-2.3-5.1-5.1c0-2.8,2.3-5.1,5.1-5.1
					C131.8,373.5,134,375.8,134,378.6z"/>
				<path class="st20" d="M320.8,142.4c0,1.8-1.5,3.3-3.3,3.3c-1.8,0-3.3-1.5-3.3-3.3c0-1.8,1.5-3.3,3.3-3.3
					C319.3,139.1,320.8,140.6,320.8,142.4z"/>
				<path class="st21" d="M407.9,204.2c0,1.8-1.5,3.3-3.3,3.3c-1.8,0-3.3-1.5-3.3-3.3c0-1.8,1.5-3.3,3.3-3.3
					C406.4,200.9,407.9,202.4,407.9,204.2z"/>
				<g>
					<g>
						<g>
							<path class="st18" d="M60,269.4c-0.4,0-0.7-0.3-0.7-0.7V264c0-0.4,0.3-0.7,0.7-0.7c0.4,0,0.7,0.3,0.7,0.7v4.7
								C60.6,269.1,60.3,269.4,60,269.4z"/>
						</g>
						<g>
							<path class="st18" d="M62.3,267h-4.7c-0.4,0-0.7-0.3-0.7-0.7c0-0.4,0.3-0.7,0.7-0.7h4.7c0.4,0,0.7,0.3,0.7,0.7
								C63,266.7,62.7,267,62.3,267z"/>
						</g>
					</g>
				</g>
				<g class="st22">
					<g>
						<path class="st18" d="M140.8,121.4c-0.4,0-0.7-0.3-0.7-0.7v-4.7c0-0.4,0.3-0.7,0.7-0.7c0.4,0,0.7,0.3,0.7,0.7v4.7
							C141.4,121.1,141.1,121.4,140.8,121.4z"/>
					</g>
					<g>
						<path class="st18" d="M143.1,119h-4.7c-0.4,0-0.7-0.3-0.7-0.7c0-0.4,0.3-0.7,0.7-0.7h4.7c0.4,0,0.7,0.3,0.7,0.7
							C143.8,118.8,143.5,119,143.1,119z"/>
					</g>
				</g>
				<g class="st23">
					<g>
						<g>
							<path class="st18" d="M80.7,222.6c-0.4,0-0.7-0.3-0.7-0.7v-4.7c0-0.4,0.3-0.7,0.7-0.7c0.4,0,0.7,0.3,0.7,0.7v4.7
								C81.4,222.3,81.1,222.6,80.7,222.6z"/>
						</g>
						<g>
							<path class="st18" d="M83,220.3h-4.7c-0.4,0-0.7-0.3-0.7-0.7s0.3-0.7,0.7-0.7H83c0.4,0,0.7,0.3,0.7,0.7S83.4,220.3,83,220.3z
								"/>
						</g>
					</g>
				</g>
				<g>
					<g>
						<g>
							<path class="st18" d="M396.6,259.1c-0.4,0-0.7-0.3-0.7-0.7v-4.7c0-0.4,0.3-0.7,0.7-0.7c0.4,0,0.7,0.3,0.7,0.7v4.7
								C397.2,258.8,396.9,259.1,396.6,259.1z"/>
						</g>
						<g>
							<path class="st18" d="M398.9,256.8h-4.7c-0.4,0-0.7-0.3-0.7-0.7c0-0.4,0.3-0.7,0.7-0.7h4.7c0.4,0,0.7,0.3,0.7,0.7
								C399.5,256.5,399.3,256.8,398.9,256.8z"/>
						</g>
					</g>
				</g>
				<g>
					<g>
						<g>
							<path class="st18" d="M428.3,172.7c-0.4,0-0.7-0.3-0.7-0.7v-4.7c0-0.4,0.3-0.7,0.7-0.7c0.4,0,0.7,0.3,0.7,0.7v4.7
								C429,172.4,428.7,172.7,428.3,172.7z"/>
						</g>
						<g>
							<path class="st18" d="M430.6,170.3H426c-0.4,0-0.7-0.3-0.7-0.7c0-0.4,0.3-0.7,0.7-0.7h4.7c0.4,0,0.7,0.3,0.7,0.7
								C431.3,170,431,170.3,430.6,170.3z"/>
						</g>
					</g>
				</g>
				<g>
					<path class="st5" d="M410.6,150.5c-1.3-0.7-2.7-1-3.9-1.8c-3.4-2.3-4-7.1-5.4-10.8c-1.6-4.2-5.8-6.6-10.3-6.2
						c-3.1,0.3-5.6,2.2-7.7,4.4c-1.3,1.5-1.7,6.3-5.9,6.4c-0.8,0-1.4-0.7-2.1-1.2c-2-1.4-5.1-0.4-6,2c-0.4,1.2-0.4,2.6-1.1,3.7
						c-1.8,2.7-6.1,0.6-8.4,2.7c-0.8,0.8-1.2,2-1.9,2.8c-1,1.3-2.7,1.8-4.2,2.3c-4.2,1.2-9.7,1.4-9.7,2.8c0,2,21.7,0.8,34.5,0.8
						c7,0,14,0,21.1,0c3.3,0,13.8,1.6,13.6-4.5C413.1,152.4,411.8,151.2,410.6,150.5z"/>
				</g>
				<g>
					<path class="st5" d="M280.5,121.3c0,0-0.1-0.1-0.1-0.1c-1.2-1.3-1.7-2.7-3.8-2.8c-2.4-0.1-6.4,0.5-7.4-2.4
						c-0.6-1.8,0-3.8-1.3-5.4c-0.9-1.1-2.4-1.5-3.8-1.5c-2.4,0.1-4.4,1.8-6.7,2.1c-2.8,0.4-4.1-2.2-6.3-3.3
						c-3.9-1.9-7.3-0.2-9.3,1.3c-2.2,1.7-3.7,4.4-4.1,7.2c-0.5,3.4,2.6,6.6,5.9,8.1c1.6,0.7,3.5,0.9,5.3,0.9c2.1,0,4.2-0.1,6.3-0.1
						c3.9-0.1,36.1,0.2,36.1-0.8c0-0.6-4.7-1.2-5.3-1.4C284.2,122.6,282,122.8,280.5,121.3z"/>
				</g>
				<g>
					<path class="st2" d="M97.1,173.4c0,0-0.1-0.1-0.1-0.1c-1.2-1.3-1.7-2.7-3.8-2.8c-2.4-0.1-6.4,0.5-7.4-2.4
						c-0.6-1.8,0-3.8-1.3-5.4c-0.9-1.1-2.4-1.5-3.8-1.5c-2.4,0.1-4.4,1.8-6.7,2.1c-2.8,0.4-4.1-2.2-6.3-3.3
						c-3.9-1.9-7.3-0.2-9.3,1.3c-2.2,1.7-3.7,4.4-4.1,7.2c-0.5,3.4,2.6,6.6,5.9,8.1c1.6,0.7,3.5,0.9,5.3,0.9c2.1,0,4.2-0.1,6.3-0.1
						c3.9-0.1,36.1,0.2,36.1-0.8c0-0.6-4.7-1.2-5.3-1.4C100.8,174.7,98.6,174.9,97.1,173.4z"/>
				</g>
			</g>
			<g>
				<g class="st24">
					<g>
						<path class="st25" d="M140.5,182l-1.3,0.8l0,0c-0.3,0.2-0.6,0.1-0.8-0.2c-0.2-0.3-0.1-0.6,0.2-0.8l1.4-0.9
							c0.3-0.2,0.7-0.1,0.8,0.2C140.9,181.5,140.8,181.8,140.5,182L140.5,182L140.5,182z"/>
						<path class="st25" d="M137.2,184.3c-0.8,0.7-1.6,1.4-2.4,2.1c-0.2,0.2-0.6,0.2-0.8,0c-0.2-0.2-0.2-0.6,0-0.8
							c0.8-0.8,1.6-1.5,2.5-2.2c0.3-0.2,0.6-0.2,0.8,0.1S137.5,184.1,137.2,184.3L137.2,184.3z"/>
						<path class="st25" d="M133.1,188.1c-0.7,0.8-1.4,1.6-2.1,2.5c-0.2,0.2-0.5,0.3-0.8,0.1c-0.2-0.2-0.3-0.5-0.1-0.8
							c0.7-0.9,1.4-1.7,2.1-2.5c0.2-0.2,0.6-0.3,0.8,0C133.3,187.5,133.3,187.9,133.1,188.1L133.1,188.1z"/>
						<path class="st25" d="M129.6,192.5c-0.6,0.9-1.2,1.8-1.7,2.7c-0.1,0.3-0.5,0.4-0.7,0.2c-0.3-0.1-0.4-0.5-0.2-0.7
							c0.5-1,1.1-1.9,1.7-2.8c0.2-0.3,0.5-0.3,0.8-0.2C129.7,191.9,129.8,192.3,129.6,192.5L129.6,192.5z"/>
						<path class="st25" d="M126.9,197.4c-0.4,1-0.8,2-1.1,3c-0.1,0.3-0.4,0.4-0.7,0.3c-0.3-0.1-0.4-0.4-0.3-0.7
							c0.3-1.1,0.7-2.1,1.2-3.1c0.1-0.3,0.4-0.4,0.7-0.3C126.9,196.8,127,197.2,126.9,197.4L126.9,197.4z"/>
						<path class="st25" d="M125.1,202.7c-0.2,1-0.3,2.1-0.4,3.2c0,0.3-0.2,0.5-0.5,0.5c-0.3,0-0.5-0.2-0.5-0.5
							c0-1.1,0.2-2.2,0.4-3.3c0.1-0.3,0.3-0.5,0.6-0.4C125,202.2,125.2,202.5,125.1,202.7L125.1,202.7z"/>
						<path class="st25" d="M124.8,208.3c0.1,1,0.4,2.1,0.7,3.1c0.1,0.3,0,0.5-0.3,0.6c-0.2,0.1-0.5,0-0.6-0.3
							c-0.4-1.1-0.7-2.2-0.8-3.3c0-0.3,0.2-0.5,0.4-0.6C124.6,207.8,124.8,208,124.8,208.3L124.8,208.3z"/>
						<path class="st25" d="M126.6,213.4c0.5,0.9,1.2,1.7,1.9,2.5c0.2,0.2,0.2,0.5,0,0.7c-0.2,0.2-0.5,0.2-0.7,0
							c-0.8-0.8-1.5-1.7-2.1-2.7c-0.1-0.2-0.1-0.5,0.2-0.7C126.1,213.1,126.4,213.2,126.6,213.4L126.6,213.4z"/>
						<path class="st25" d="M130.3,217.5c0.8,0.6,1.7,1.2,2.7,1.7c0.2,0.1,0.3,0.4,0.2,0.6c-0.1,0.2-0.4,0.3-0.6,0.2
							c-1-0.5-1.9-1.1-2.8-1.8c-0.2-0.2-0.2-0.4-0.1-0.6C129.8,217.4,130.1,217.4,130.3,217.5L130.3,217.5z"/>
						<path class="st25" d="M135.1,220.2c1,0.4,2,0.7,3.1,1c0.2,0.1,0.4,0.3,0.3,0.5c-0.1,0.2-0.3,0.4-0.5,0.3
							c-1.1-0.2-2.1-0.6-3.2-1c-0.2-0.1-0.3-0.3-0.2-0.6C134.7,220.3,134.9,220.1,135.1,220.2L135.1,220.2z"/>
						<path class="st25" d="M140.5,221.6c1.1,0.1,2.1,0.2,3.2,0.1c0.2,0,0.4,0.2,0.4,0.4c0,0.2-0.2,0.4-0.4,0.4
							c-1.1,0-2.2,0-3.3-0.1c-0.2,0-0.4-0.2-0.4-0.5C140.1,221.8,140.3,221.6,140.5,221.6L140.5,221.6z"/>
						<path class="st25" d="M146.1,221.6c1.1-0.2,2.1-0.4,3.1-0.7c0.2-0.1,0.4,0.1,0.5,0.3c0.1,0.2-0.1,0.4-0.3,0.5
							c-1.1,0.3-2.1,0.6-3.2,0.7c-0.2,0-0.4-0.1-0.5-0.3C145.8,221.8,145.9,221.6,146.1,221.6L146.1,221.6z"/>
						<path class="st25" d="M151.5,220c1-0.4,1.9-0.9,2.8-1.6c0.2-0.1,0.4-0.1,0.5,0.1c0.1,0.2,0.1,0.4-0.1,0.5
							c-0.9,0.7-1.9,1.2-2.9,1.7c-0.2,0.1-0.4,0-0.5-0.2C151.2,220.3,151.3,220.1,151.5,220L151.5,220z"/>
						<path class="st25" d="M156,216.9c0.7-0.8,1.2-1.7,1.5-2.7c0.1-0.2,0.2-0.3,0.4-0.2c0.2,0.1,0.3,0.2,0.2,0.4
							c-0.3,1.1-0.9,2.1-1.6,3c-0.1,0.1-0.4,0.2-0.5,0C155.9,217.3,155.9,217,156,216.9L156,216.9z"/>
						<path class="st25" d="M157.8,211.9c-0.1-1-0.4-2.1-0.8-3l0,0c-0.1-0.2,0-0.4,0.2-0.4c0.2-0.1,0.4,0,0.4,0.2
							c0.5,1,0.8,2.1,0.9,3.3c0,0.2-0.1,0.3-0.3,0.4C158,212.2,157.8,212.1,157.8,211.9L157.8,211.9z"/>
						<path class="st25" d="M155.7,207c-0.8-0.7-1.7-1.2-2.7-1.5c-0.2,0-0.3-0.2-0.2-0.4c0-0.2,0.2-0.3,0.4-0.2
							c1.1,0.3,2.1,0.9,3,1.6c0.1,0.1,0.1,0.3,0,0.4C156,207.1,155.8,207.1,155.7,207L155.7,207z"/>
						<path class="st25" d="M150.6,205.1c-1.1-0.1-2.1,0-3.2,0.2c-0.2,0-0.3-0.1-0.3-0.2c0-0.2,0.1-0.3,0.2-0.3
							c1.1-0.2,2.2-0.3,3.3-0.2c0.2,0,0.3,0.1,0.3,0.3C150.9,205,150.8,205.1,150.6,205.1L150.6,205.1z"/>
						<path class="st25" d="M145.1,205.8c-1,0.3-2,0.7-3,1.2c-0.1,0.1-0.3,0-0.4-0.1c-0.1-0.1,0-0.3,0.1-0.4c1-0.5,2-0.9,3.1-1.2
							c0.1,0,0.3,0,0.3,0.2S145.2,205.8,145.1,205.8L145.1,205.8z"/>
						<path class="st25" d="M139.9,208.1c-0.9,0.5-1.8,1.1-2.7,1.8c-0.1,0.1-0.3,0.1-0.3,0c-0.1-0.1-0.1-0.3,0-0.3
							c0.9-0.7,1.8-1.3,2.7-1.9c0.1-0.1,0.3,0,0.4,0.1C140.1,207.9,140.1,208,139.9,208.1L139.9,208.1z"/>
						<path class="st25" d="M135.4,211.5c-0.8,0.7-1.5,1.5-2.2,2.3c-0.1,0.1-0.2,0.1-0.3,0c-0.1-0.1-0.1-0.2,0-0.3
							c0.7-0.8,1.5-1.6,2.3-2.4c0.1-0.1,0.2-0.1,0.3,0C135.5,211.2,135.5,211.4,135.4,211.5L135.4,211.5z"/>
						<path class="st25" d="M131.7,215.7c-0.6,0.9-1.2,1.8-1.6,2.8c-0.1,0.1-0.2,0.1-0.3,0.1c-0.1-0.1-0.1-0.2-0.1-0.3
							c0.5-1,1-1.9,1.6-2.9c0.1-0.1,0.2-0.1,0.3-0.1S131.8,215.6,131.7,215.7L131.7,215.7z"/>
						<path class="st25" d="M129.1,220.8c-0.4,1-0.7,2.1-0.9,3.1c0,0.1-0.1,0.2-0.2,0.1c-0.1,0-0.2-0.1-0.1-0.2
							c0.2-1.1,0.5-2.1,0.9-3.2c0-0.1,0.2-0.2,0.3-0.1S129.1,220.7,129.1,220.8L129.1,220.8z"/>
						<path class="st25" d="M127.9,226.3c-0.1,1.1-0.1,2.2,0,3.2c0,0.1-0.1,0.2-0.2,0.2c-0.1,0-0.2-0.1-0.2-0.2
							c-0.1-1.1-0.1-2.2,0-3.3c0-0.1,0.1-0.2,0.2-0.2S127.9,226.2,127.9,226.3L127.9,226.3z"/>
						<path class="st25" d="M128.2,231.9c0.2,1.1,0.4,2.1,0.8,3.1c0,0.1,0,0.2-0.1,0.2c-0.1,0-0.2,0-0.2-0.1c-0.3-1-0.6-2.1-0.8-3.2
							c0-0.1,0-0.2,0.1-0.2C128.1,231.8,128.2,231.8,128.2,231.9L128.2,231.9z"/>
						<path class="st25" d="M129.8,237.4c0.4,1,0.9,2,1.4,2.9c0,0.1,0,0.1,0,0.2c-0.1,0-0.1,0-0.2,0c-0.5-0.9-1-1.9-1.4-2.9
							c0-0.1,0-0.2,0.1-0.2S129.8,237.3,129.8,237.4L129.8,237.4z"/>
						<path class="st25" d="M132.5,242.3c0.6,0.9,1.4,1.7,2.2,2.4c0,0,0.1,0.1,0,0.2c0,0-0.1,0.1-0.2,0c-0.8-0.7-1.5-1.6-2.2-2.4
							c0-0.1,0-0.1,0-0.2C132.4,242.3,132.5,242.3,132.5,242.3L132.5,242.3z"/>
						<path class="st25" d="M136.6,246.3c0.9,0.6,1.9,1.1,2.8,1.5c0.1,0,0.1,0.1,0.1,0.1c0,0.1-0.1,0.1-0.1,0.1
							c-1-0.4-2-0.9-2.9-1.5c-0.1,0-0.1-0.1,0-0.2C136.5,246.2,136.5,246.2,136.6,246.3L136.6,246.3z"/>
						<path class="st25" d="M141.8,248.6c1,0.3,2.1,0.4,3.2,0.5c0,0,0.1,0,0.1,0.1c0,0,0,0.1-0.1,0.1c-1.1-0.1-2.2-0.3-3.2-0.5
							c-0.1,0-0.1-0.1-0.1-0.1S141.7,248.5,141.8,248.6L141.8,248.6z"/>
						<path class="st25" d="M147.4,249.2c1.1,0,2.2-0.1,3.2-0.2c0,0,0.1,0,0.1,0.1c0,0,0,0.1-0.1,0.1c-1.1,0.1-2.2,0.2-3.3,0.3
							C147.4,249.4,147.3,249.3,147.4,249.2C147.3,249.2,147.3,249.2,147.4,249.2L147.4,249.2z"/>
						<path class="st25" d="M153.1,248.6c1.1-0.2,2.1-0.5,3.2-0.8c0,0,0.1,0,0.1,0c0,0,0,0.1,0,0.1c-1,0.3-2.1,0.6-3.2,0.8
							C153,248.7,153,248.7,153.1,248.6C153,248.6,153,248.6,153.1,248.6L153.1,248.6z"/>
						<path class="st25" d="M158.6,247.1l3.1-1.1c0,0,0,0,0.1,0c0,0,0,0,0,0.1L158.6,247.1C158.6,247.2,158.5,247.2,158.6,247.1
							C158.5,247.1,158.5,247.1,158.6,247.1L158.6,247.1z"/>
						<path class="st25" d="M163.9,245l3-1.4c0,0,0,0,0,0c0,0,0,0,0,0L163.9,245C163.9,245.1,163.9,245.1,163.9,245
							C163.9,245,163.9,245,163.9,245L163.9,245z"/>
						<path class="st25" d="M169,242.5l2.8-1.6c0,0,0,0,0,0c0,0,0,0,0,0L169,242.5C169,242.5,169,242.5,169,242.5
							C169,242.5,169,242.5,169,242.5L169,242.5z"/>
						<polygon class="st25" points="173.9,239.6 175.3,238.7 173.9,239.6 173.9,239.6 173.9,239.6 						"/>
					</g>
				</g>
				<g>
					<path class="st26" d="M148,160.6c0.1-0.2-8.7,5.3-8.7,5.3l2.3,14.8l4.3-11.1l11.4-2.2l16.2-15.2L148,160.6z"/>
					<polygon class="st27" points="173.4,152.2 141.5,180.7 145.8,169.6 					"/>
					<polygon class="st28" points="173.4,152.2 131.2,161.2 139.2,165.9 173.4,152.2 145.8,169.6 159.5,178.1 					"/>
				</g>
			</g>
		</g>
	</g>
	<g>
		<g class="st29">
			<defs>
				
					<rect id="SVGID_00000076575658558785939150000003321008675785884558_" x="309.1" y="297.4" class="st29" width="78.7" height="60.1"/>
			</defs>
			<clipPath id="SVGID_00000023276731144892297280000004354012451080096921_">
				<use xlink:href="#SVGID_00000076575658558785939150000003321008675785884558_"  style="overflow:visible;"/>
			</clipPath>
			<path style="opacity:0.2;clip-path:url(#SVGID_00000023276731144892297280000004354012451080096921_);fill:#5275A0;" d="
				M428.6,343.4c-2,0-4,0.3-5.8,1c-0.4-15.2-12.9-27.5-28.3-27.5c-15.6,0-28.3,12.7-28.3,28.3c0,0.7,0,1.4,0.1,2.1
				c-2.7-4.6-7.7-7.7-13.5-7.7c-8.7,0-15.7,7-15.7,15.7c0,1.2,0.2,2.4,0.4,3.6c-1.6-0.9-3.5-1.4-5.5-1.4c-6.2,0-11.2,5-11.2,11.2
				c0,6.2,5,11.2,11.2,11.2c6.2,0,88.6,0,96.5,0c10.1,0,18.3-8.2,18.3-18.3C446.8,351.5,438.7,343.4,428.6,343.4z"/>
		</g>
		<ellipse class="st3" cx="383.8" cy="383.5" rx="67.1" ry="5.3"/>
		<g>
			<g>
				<path class="st31" d="M404.2,341.3c-3.7-12.7-0.9-26.4,3.4-38.9c1-3,2.2-6.1,4.5-8.3c1.1-1.2,2.7-2.1,4.3-1.8
					c2.3,0.5,3.3,3.3,3.6,5.6c1.7,15-8.2,28.7-10.7,43.6"/>
			</g>
			<g>
				<path class="st31" d="M393.7,334.9c-0.7-3.8-1.7-7.5-3.5-10.9c-1.8-3.4-4.4-6.4-7.8-8.2c-1.5-0.8-3.5-1.3-4.8-0.1
					c-1.4,1.2-0.9,3.5-0.1,5.2c4.5,9.2,16.1,13.3,20.5,22.6"/>
			</g>
			<g>
				<path class="st31" d="M399,342.4c-2.9-5.4-5.6-10.8-7.2-16.7c-1.6-5.9-1.9-12.2,0.1-18c0.6-1.8,2.1-3.8,3.9-3.2
					c0.7,0.2,1.1,0.8,1.6,1.3c3.3,4.4,4.6,9.9,5.2,15.3c0.6,5.4,0.6,10.9,1.8,16.3c0.2,0.8,0.4,1.6,1,2.2c0.6,0.6,1.6,0.8,2.2,0.3
					c0.4-0.3,0.5-0.7,0.7-1.2c0.8-2.4,12.5-26.8,23.2-28.6c0.9-0.1,1.7-0.2,2.6-0.1c13.4,2.2-16.8,30.2-17,34.4
					c10.9-9.4,13.2-11.1,18.2-12c3.8-0.7,10.5,2.7,8.3,7.4c-1.5,3.2-5.3,4.7-8.8,5.4c-3.8,0.8-7.8,1-11.5,2.1
					c-3.8,1.1-7.5,3.1-9.4,6.5"/>
			</g>
		</g>
		<path class="st5" d="M429.1,347c-2,0-4,0.3-5.8,1c-0.4-15.2-12.9-27.5-28.3-27.5c-15.6,0-28.3,12.7-28.3,28.3c0,0.7,0,1.4,0.1,2.1
			c-2.7-4.6-7.7-7.7-13.5-7.7c-8.7,0-15.7,7-15.7,15.7c0,1.2,0.2,2.4,0.4,3.6c-1.6-0.9-3.5-1.4-5.5-1.4c-6.2,0-11.2,5-11.2,11.2
			s5,11.2,11.2,11.2c6.2,0,88.6,0,96.5,0c10.1,0,18.3-8.2,18.3-18.3C447.4,355.2,439.2,347,429.1,347z"/>
	</g>
	<g>
		<path class="st2" d="M103.4,363.4c0,1.6,12.8,2.8,28.5,2.8c15.7,0,28.5-1.3,28.5-2.8c0-1.6-12.8-2.8-28.5-2.8
			C116.2,360.6,103.4,361.9,103.4,363.4z"/>
		<path class="st32" d="M147.2,359.4c0.2,0.4,1.4,1.5,3,2.1c1.6,0.7,4.9,1,3.1,1.6c-1.9,0.6-4,0.2-5.1,0.1c-1.1-0.2-2.2-0.2-3.5-0.2
			c-1.7,0-1.7-0.1-1.5-1.9C143.4,358.5,146.4,358,147.2,359.4z"/>
		<path class="st32" d="M116.1,358.5c0.1,0.5-0.7,2,0.7,3.2c1.4,1.1,4.5,2.3,2.4,2.4c-2.1,0-4-0.4-5.1-0.9c-1-0.5-0.2-1.3-1.5-1.6
			c-1.7-0.5-1.4-1.7-0.5-2.4C113.3,356.7,115.8,356.9,116.1,358.5z"/>
		<path class="st33" d="M122.6,307.5c0,0-4.1-11.3,7.5-20.7c0,0,6.2,2.3,11.2,2.6c3.9,0.2,5.9-0.1,5.9-0.1s0.3,10.1,0.3,15.5
			L122.6,307.5z"/>
		<path class="st33" d="M148.5,326.3c0.2-5.1-5.6-4.4-7.8-0.6c-4.4,7.8,1.6,25.8,2.4,34.4c0.8,0.3,2.2,0.5,3.1,0.2
			c0.6-0.2,0.9-0.9,0.9-0.9C147.1,348.8,148.3,331.7,148.5,326.3z"/>
		<path class="st33" d="M141,327c0.7,2.1,8.1,4.2,7.5-3.3c-0.3-3.3-1-21.8-1.1-23.6c-0.1-1.8-0.5-4.4-1.4-4.7
			c-4.6-1.6-12.6,4-11.4,10.7C135.4,310.6,139.6,322.7,141,327z"/>
		<path class="st33" d="M129.3,329.9c1.8-4.8-4-5.6-7.4-2.7c-7.8,6.9-8.1,23.1-10,31.5c1.1,0.7,2.8,0.9,3.4,0.9
			c0.6,0,0.9-0.4,0.9-0.4C119.4,349.2,127.3,335,129.3,329.9z"/>
		<path class="st33" d="M121.6,328.4c-0.2,2.2,6,6.6,8.4-0.6c1.1-3.2,5.7-22,6.3-23.7c0.6-1.7,0.4-5.2-0.3-5.8
			c-3.6-3.1-11.7-0.4-13.2,6.2C121.8,308.9,122,323.9,121.6,328.4z"/>
		<g>
			<path class="st7" d="M150.7,256.3c0,0,4.4,5.2,4.8,23.2l-4.9,1.8l-4.8-13.4L150.7,256.3z"/>
			<path class="st34" d="M147.1,264.8c-0.2,1.8-0.4,3.7-0.5,5.4l1,2.9c1.5-3.9,3.9-12.2,4.4-14.2c-0.8-1.8-1.4-2.5-1.4-2.5
				L147.1,264.8z"/>
			<g>
				<path class="st35" d="M142.7,233.7c1,0.3,1.6,1.5,1.9,2.4c0.4,1,0.6,2.1,0.8,3.2c0.1,0.8,0.2,1.6-0.2,2.3
					c-0.2,0.4-0.4,0.7-0.7,1c-0.1,0.2-0.3,0.4-0.5,0.5c-0.2,0.1-0.4,0.2-0.7,0.1c-0.3-0.1-0.4-0.5-0.5-0.8c-0.6-2-1.2-4.1-2.4-5.8"
					/>
			</g>
			<g>
				<path class="st36" d="M143.8,240.1c0-0.6,0.7-1.1,1.4-0.4c0.5,0.6,0.7,1.6,0.7,2.4c0,0.9-0.7,1.1-1.4,1.2"/>
			</g>
			<path class="st7" d="M150.7,256.3c-1.3-1.4-5.3-3.6-10.6-3.5c-3.7,0.1-13.7,0.7-14.8,3c-0.6,1.2-1.2,13.3-0.3,17.5
				c0.6,3.2,2.2,11,2.2,12.8c0,1.9-1.1,2.7-0.6,3.2c1.1,1.2,8.8,1.7,12.4,1.7c3.2,0,8.7-0.8,9-1.8c0.4-1.4-0.6-1.4-0.8-2.9
				c-0.1-1.5-0.5-11.3,0-12.9c1.1-2.9,1.6-7.6,2.4-9.7C150.2,262.3,151.9,257.7,150.7,256.3z"/>
			<path class="st34" d="M127.7,266.2c-0.4,0.8-3,4.7-3,4.7l-0.1,0.5c0.1,0.8,0.2,1.5,0.3,2.1c0.6,3.2,2.2,11,2.2,12.8
				c0,1.9-1,2.7-0.6,3.2c0.9,1.1,15.4,3.7,14.7,0.5c-0.1-0.3-12.2-9-12.2-9.3c-0.6-2.5-1-4.3-1.3-6.1
				C127.1,270.3,128,265.4,127.7,266.2z"/>
			<path class="st37" d="M143,248.5c0,0,0,4,0.2,4.1c0.2,0.2,1,0.5,1,0.5s-0.6,3.4-1.5,3.2c-0.9-0.3-7-3.1-7-3.1s0.9-0.3,0.9-0.6
				s-0.8-6.5-0.8-6.5"/>
			<path class="st37" d="M138.8,234.2c0.9,0.2,3.2-0.2,3.8,0.7c0.6,0.9,1.2,3.1,1.4,3.7c0.5,1.2,0.8,2.5,1.1,3.7
				c0.5,1.6,1.2,4.6-0.5,5.9c-0.5,0.4-0.7,0.5-1.3,0.6c-0.8,0.1-1.6,0.3-2.4,0.4c-1.2,0.2-2.6,0.4-3.8,0.1c-1.6-0.5-2.5-2.6-2.9-4
				l-2.4-8.2L138.8,234.2z"/>
			<path class="st33" d="M143.1,257.9c0,0,0.4,15.4,1,24.8l-2.4,3.1l-1.7-3.9c0,0-0.7-11.3,1.6-23.9L143.1,257.9z"/>
			<path class="st33" d="M143.7,256.5l-0.1,0.2c-0.1,0.4-0.3,0.8-0.5,1.1l0,0l-1.5,0.1c0,0-1-0.5-1.1-1c-0.1-0.5,1.7-1.4,1.7-1.4
				l0.2,0.1C142.9,255.8,143.3,256.1,143.7,256.5L143.7,256.5z"/>
			<path class="st5" d="M136.4,251.6c0,0-0.9,0.6-1.7,1.6c0.8,1.6,2.5,4.5,4.4,5.9c0.9-2.2,3-3.5,3-3.5S137,254.7,136.4,251.6z"/>
			<path class="st5" d="M142.1,255.6c0,0,1.8,0.7,2.9,2.6c0,0,0.4-2.6-0.4-4.9c0,0-1.2-1.5-1.6-1.5
				C143.2,253.7,142.1,255.6,142.1,255.6z"/>
			<g>
				<g>
					<path class="st36" d="M141.9,290c1.8,0.3,2.5,0.9,3.5,1.9c0.1,0.1,0.2,0.2,0.2,0.3c0,0.1-0.2,0.2-0.3,0.2
						c-0.9,0.1-1-0.4-1.8-0.7c-0.5-0.2-1.1-0.4-1.6-0.6"/>
				</g>
				<g>
					<g>
						<path class="st38" d="M148.1,277.5l-6.5,19.6c-0.2,0.5,0.1,1,0.7,1l13.5,1.1c0.5,0,1-0.4,1.1-0.8l7-19.3
							c0.2-0.5-0.6-1.3-1.2-1.3l-13.5-1.1C148.8,276.6,148.3,277,148.1,277.5z"/>
					</g>
					<g>
						<path class="st5" d="M148.6,278l-6.4,19.3c-0.2,0.5,0.1,1,0.7,1l13.5,1.1c0.5,0,1-0.4,1.1-0.8l6.4-19.3c0.2-0.5-0.1-1-0.7-1
							l-13.5-1.1C149.2,277.1,148.7,277.5,148.6,278z"/>
					</g>
				</g>
				<g>
					<path class="st37" d="M136.7,288.7c1.4,0.3,5.2,1.3,5.6,1.5c0.5,0.2,2,1.3,2.4,1.7c1.4,1.3,0.7,2,1.3,3.8c0,0.1,0,0.2,0,0.3
						c0,0.2-0.3,0.4-0.5,0.2c-0.1,0.2-0.6,0.1-0.8-0.2c0,0.2-0.3,0.3-0.7,0.1c-0.2-0.1-0.2-0.1-0.7-0.6c-0.4-0.3-0.8-0.6-1.5-0.9
						c-0.5-0.2-1.1-0.4-1.5-0.6c-0.6-0.4-1.6-0.4-2.1-2c-0.1-0.3-0.5-0.6-0.8-0.7c-0.8-0.5-1.5-0.9-2.3-1.4"/>
				</g>
				<path class="st7" d="M128,263.6c-0.6,2-3.1,16-3.1,16l14.1,9.6l-1.2,2.9c0,0-16.9-5.3-18.2-9c-1.3-3.7-1.3-20.1,3.4-25.9
					c1.5-1.8,4.5-2.8,4.5-2.8"/>
				<g>
					<path class="st36" d="M142.5,293.7c0.2,0.1,0.4,0.2,0.7,0.4c0.2,0.1,0.4,0.3,0.6,0.5c0.3,0.4,0.6,0.8,0.9,1.2
						c-0.4-0.3-0.7-0.7-1-1.1C143.3,294.3,142.9,294.1,142.5,293.7z"/>
				</g>
				<g>
					<path class="st36" d="M143.3,292.8c0.3,0.1,0.5,0.4,0.7,0.6c0.2,0.2,0.4,0.5,0.6,0.8c0.3,0.5,0.6,1.1,0.8,1.7
						c-0.4-0.5-0.7-1-1-1.6c-0.1-0.3-0.3-0.5-0.5-0.8C143.7,293.3,143.5,293,143.3,292.8z"/>
				</g>
				<g>
					<path class="st36" d="M144.2,292.1c0.2,0.2,0.4,0.4,0.7,0.6c0.2,0.2,0.4,0.5,0.5,0.8c0.3,0.5,0.4,1.1,0.5,1.7
						c-0.2-0.6-0.4-1.1-0.7-1.6c-0.1-0.3-0.2-0.5-0.4-0.8C144.5,292.6,144.3,292.4,144.2,292.1z"/>
				</g>
			</g>
			<g>
				<path class="st35" d="M133.4,243.8c0.6-0.3,1-0.6,1.3-0.1c0.2,0.3,0.3,0.6,0.6,0.7c0.3,0.1,0.7-0.2,0.7-0.5
					c0.1-0.3,0-0.6-0.1-0.9c-0.2-0.7-0.4-1.3-0.7-2c-0.2-0.7-0.4-1.4-0.2-2c0.1-0.3,0.4-0.6,0.7-0.8c0.9-0.7,2.1-1.1,3.3-1.3
					c1.2-0.2,2.4-0.3,3.5-0.7c0.5-0.1,1-0.3,1.4-0.6c0.6-0.5,0.9-1.3,1-2.1c0-0.8-0.3-1.5-0.7-2.2c-0.1,0.3-0.2,0.5-0.4,0.8
					c-0.1-0.4-0.4-0.7-0.6-1c-0.3,1.8-8.4,1.2-10.3,2c-1.3,0.6-2.4,0.9-2.4,2.9c0,0.1-0.2,0.2-0.3,0.3c-1.2,1-1.7,2.2-1.8,4
					c-0.2,2.2,1.2,4.6,2.5,6.5c0.3,0.5,0.5,0.8,1,1.1c0.5,0.3,1.3,0.5,1.9,0.4c0.6-0.1,1.7-0.1,1.7-0.6c0-0.4-0.9-1.1-1.2-1.4"/>
			</g>
			<g>
				<path class="st37" d="M135.5,245.9c0,0,0.1,0.4-0.2,0.7c-0.2,0.3-0.7,0.2-1,0.1c-0.9-0.3-1.5-1.1-1.6-1.9
					c-0.2-1,0.4-1.9,1.3-1.7c0.5,0.1,0.9,0.7,0.9,1.3"/>
			</g>
			<g>
				<path class="st36" d="M142.9,248.9l-2.6,0.4c0,0,0.9,0.9,2.6,0.9"/>
			</g>
		</g>
	</g>
	<g>
		<g>
			<g>
				<polyline class="st18" points="358.6,277.1 361.9,278.7 360.7,275.5 				"/>
			</g>
			<g>
				<path class="st18" d="M361.9,272.6c0,3.1-2.5,5.6-5.6,5.6c-3.1,0-5.6-2.5-5.6-5.6c0-3.1,2.5-5.6,5.6-5.6
					C359.4,266.9,361.9,269.4,361.9,272.6z"/>
				<polyline class="st19" points="353.8,272.8 356,275 359,271 				"/>
			</g>
		</g>
		<g>
			<g>
				<g>
					<g>
						<g>
							<path class="st31" d="M379.2,390.9l-0.9-48.9h3.3l-0.9,48.9c0,0.5-0.3,0.9-0.7,0.9C379.5,391.8,379.2,391.4,379.2,390.9z"/>
						</g>
					</g>
				</g>
				<g>
					<g>
						<g>
							<path class="st31" d="M409.1,385.8l-18.9-45.1l3-1.2l17.2,45.8c0.2,0.5,0,1-0.3,1.1C409.8,386.6,409.3,386.3,409.1,385.8z"/>
						</g>
					</g>
				</g>
				<g>
					<g>
						<g>
							<path class="st31" d="M350.7,387l18.9-45.1l-3-1.2l-17.2,45.8c-0.2,0.5,0,1,0.3,1.1C350.1,387.7,350.5,387.4,350.7,387z"/>
						</g>
					</g>
				</g>
				<g>
					<g>
						<g>
							<path class="st39" d="M393.8,340.9l-1.9,0.8l17.8,44.7c-0.2-0.1-0.4-0.3-0.5-0.5l-18.9-45.1l3-1.2L393.8,340.9z"/>
						</g>
					</g>
				</g>
				<g>
					<g>
						<g>
							<path class="st39" d="M381.5,343.3h-2.4l0.9,48.5c0,0-0.1,0-0.1,0c-0.4,0-0.7-0.4-0.7-0.9l-0.9-48.9h3.3L381.5,343.3z"/>
						</g>
					</g>
				</g>
				<g>
					<g>
						<g>
							<path class="st39" d="M349.4,386.4l17.2-45.8l3,1.2l-0.3,0.8l-1.9-0.7l-17.1,45.6c-0.2,0.1-0.4,0.1-0.6,0.1
								C349.4,387.4,349.2,386.9,349.4,386.4z"/>
						</g>
					</g>
				</g>
			</g>
			<g>
				<g>
					<g>
						<g>
							<path class="st40" d="M357.5,347.8c3.3,2.7,8.2,5.2,20.6,5.4c16.3,0.3,24.9-1.5,29.5-10c7.8-14.1-1.9-59.6-17.3-49.5
								c-12.8,8.4-15.4,35.3-17.1,39C371.7,336.5,349.5,341.3,357.5,347.8z"/>
						</g>
					</g>
				</g>
			</g>
			<g>
				<g>
					<g>
						<path class="st41" d="M375.3,349.7c16.3,0.3,24.9-1.5,29.5-10c5.3-9.6,2.5-33.8-4.8-45.1c9.2,8.5,13.5,37.8,7.6,48.5
							c-4.6,8.4-13.2,10.3-29.5,10c-12.4-0.2-17.3-2.7-20.6-5.4c-1.1-0.9-1.7-1.8-1.7-2.6C359.1,347.5,364.2,349.5,375.3,349.7z"/>
					</g>
				</g>
			</g>
		</g>
		<g>
			<g>
				<path class="st42" d="M368.6,283.1c-0.7,0.3-1.2,0.9-1.3,1.7s0.1,1.5,0.7,2c-0.6,0-1.1,0.7-1,1.4c0.1,0.6,0.5,1.2,0.9,1.6
					c0.5,0.5,1.1,1.1,1.8,1.1c0.5,0,1-0.3,1.4-0.6c0.3-0.3,0.5-0.6,0.7-0.9c0.2-0.4,0.2-0.8,0.2-1.3c0.1-1.5,0.3-3,0.4-4.5
					c0-0.3,0-0.7-0.2-0.9"/>
			</g>
			<g>
				<path class="st37" d="M381.5,293c0.1,2,0,5.4,0.5,5.9c0.6,0.5,4.5,0.5,4.5,0.5s-8.6,8.1-9.2,7.7c-0.6-0.4-8.2-6.7-6.5-7
					c1.7-0.3,3.4-0.3,3.3-1.1c0-0.9-0.1-1.8-0.1-2.7"/>
			</g>
			<g>
				<path class="st37" d="M381.5,293c0.1,2,0,5.4,0.5,5.9c0.6,0.5,4.5,0.5,4.5,0.5s-8.6,8.1-9.2,7.7c-0.6-0.4-8.2-6.7-6.5-7
					c1.7-0.3,3.4-0.3,3.3-1.1c0-0.9-0.1-1.8-0.1-2.7"/>
			</g>
			<path class="st7" d="M394.1,322.5l-3.9,12.7l-1.3,1.5c0,0-11.5,1.3-15.1,1.5c-0.2,0-0.3,0-0.4,0c-2.9,0.1-2.8-1.4-2.8-1.4
				c0-0.7-0.1-1.6-0.1-2.5c-0.2-3.6-0.7-8.7-1.2-10.7c-0.6-2.4-0.8-3.3-1.3-5.5c-1.1-5-1-6-2.2-12.2l7.5-6c0,0,0.8,2.3,3.9,2.3
				c4.2,0.1,5.5-2.9,5.5-2.9l10.3,6.8L394.1,322.5z"/>
			<g>
				<path class="st37" d="M381.7,291.3c-0.2,1-0.5,2-0.9,2.9c-0.7,1.7-1.6,2.3-3.5,2.4c-1.3,0-2.6,0.1-3.9,0.1c-1,0-2.2,0.1-3-0.6
					c-0.8-0.7-0.8-1.8-1-2.8c-0.2-1.2-0.4-2.4-0.5-3.7c-0.3-2.4-0.4-4.8-0.3-7.3c0-0.3,0-0.7,0.1-1c0-0.1,0.1-0.3,0.2-0.4
					c0.1-0.1,0.3-0.2,0.5-0.2c2.4-0.4,4.9-0.5,7.3-0.5c1.7,0,3.5,0.3,4.9,1.3c1.4,1.1,2,2.8,2.6,4.4c0.1,0.3,0.2,0.6-0.1,0.8"/>
			</g>
			<g>
				<g>
					<path class="st37" d="M354.1,379.1c0,0,0.4,2.4,0.7,3.2c0.3,0.8,3,0.1,3.2-0.5c0.2-0.5-0.9-4.5-0.9-4.5"/>
					<path class="st43" d="M359,382.5c0.2,0.9,0.5,2.6,0.5,2.6l-2.7,1.2l-0.4-0.4c0,0-0.7,0.8-1.5,1.2c-0.6,0.3-1.9,0.7-2.6,0.7
						c-2.4,0.3-4.1-0.2-4.3-0.5c-0.6-1.4,2.6-1.7,3.2-1.9c1.8-0.5,2.8-2,3-3c0.1-0.7,0-0.8,0.4-0.8c0,0,0.4,0,0.7,0.3
						c0.5,0.5,1.3,0.8,1.9,0.4c0.4-0.2,0.7-0.4,1-0.8C358.1,381.5,358.8,381.6,359,382.5z"/>
				</g>
				<g>
					<g>
						<path class="st33" d="M373.8,338.1l-7.7,9.3c-0.3,0.1-0.6,0.1-0.9,0.2c-2,0.3-4.2,0.5-6.3,0.5c-2.3,0-4.6-0.1-6.6-0.4
							c0.6,1.7,2.1,3.9,2.6,6.3c1.8,8,2.5,18.7,3,25.4c0,0-0.9,1.7-3.7,0.4c-4.2-10.5-11.7-31.8-11.6-36.4c0-1.1,0.6-2.1,1.7-3
							c0.1-0.1,0.1-0.1,0.2-0.1c1.2-1,2.9-1.8,5-2.6c0.1,0,0.1,0,0.2-0.1c5-1.8,12.3-2.9,20.4-3.6c0.1,0,0.1,0,0.2,0
							c0.1,0,0.2,0,0.4,0v0c0.1,1,0.1,1.9,0.1,2.5c0,0-0.1,1.5,2.8,1.4C373.5,338.1,373.7,338.1,373.8,338.1z"/>
					</g>
					<g class="st44">
						<path class="st45" d="M373.8,338.1l-7.7,9.3c-0.3,0.1-0.6,0.1-0.9,0.2c-2.1,0.4-4.2,0.5-6.3,0.5c-0.2-0.4-0.4-0.9-0.5-1.4
							c-0.1-0.6-0.1-1.3-0.2-2c-0.2-1.3-1.1-2.3-2.2-3c-1.1-0.7-2.4-1-3.6-1.2c-2.8-0.5-7.7-0.2-8.2-0.1c0,0,0,0,0,0
							c0.1,0,0.1-0.1,0.2-0.1c1.4-1,3.1-1.9,5-2.6c0.1,0,0.1,0,0.2-0.1c6.7-2.5,15.4-3.2,20.4-3.6c0.1,0,0.1,0,0.2,0
							c0.1,0,0.3,0,0.4,0c0.1,1,0.1,1.9,0.1,2.5c0,0-0.1,1.5,2.8,1.4C373.5,338.1,373.7,338.1,373.8,338.1z"/>
					</g>
				</g>
				<g>
					<path class="st37" d="M361.1,384.6c0,0,0,2.5,0.2,3.3c0.2,0.9,3,0.6,3.2,0.1c0.3-0.5-0.1-4.6-0.1-4.6"/>
					<path class="st43" d="M365.3,388.9c0.1,0.9,0.1,2.7,0.1,2.7l-2.9,0.7l-0.4-0.5c0,0-0.8,0.7-1.7,0.9c-0.7,0.2-2,0.3-2.7,0.3
						c-2.4-0.2-4-0.9-4.1-1.2c-0.3-1.5,2.8-1.3,3.5-1.3c1.8-0.2,3.1-1.5,3.4-2.4c0.3-0.7,0.1-0.8,0.5-0.7c0,0,0.3,0,0.6,0.4
						c0.4,0.6,1.1,1,1.8,0.8c0.4-0.1,0.8-0.3,1.1-0.6C364.6,387.8,365.3,388,365.3,388.9z"/>
				</g>
				<g>
					<path class="st33" d="M392.2,335.2c1.1,2.6,1.9,7.4,0.7,9.4c-1,1.8-1.5,2.9-3.2,3.5c-7.2,2.4-14.1,1.4-22.1,0.4
						c3.4,9.1-1.5,28.7-2.3,37c-3.1,1.4-4.8-0.1-4.8-0.1c0.3-16.9-3.4-40.4-1.1-44.5c1.4-2.5,17.9-5.7,18.2-5.6"/>
				</g>
			</g>
			<g>
				<path class="st42" d="M379.5,288.3c0.1-0.6,1-0.6,1.4-0.2c0.4,0.4,0.5,1.1,0.5,1.7c0,0.7-0.3,1.5-0.7,2.1c-0.4,0.6-1,1-1.5,0.5
					c0,1.1,0.8,2,1.6,2c0.8,0,1.5-0.5,1.7-1.2c3.3,1.2,4.3-3.5,4.5-5.9c0.2-1.9-0.5-4.1-1.5-5.7c-0.6-0.8-1.4-1.6-2.4-1.8
					c-0.1-1.2-1-2.2-2-2.8c-1-0.6-2-0.9-3.2-1.1c-0.7-0.1-2.7,0.4-3.1,1.1c-1.4-0.8-2.6,0-3.7,0.1c-1.1,0.1-2.3,1.1-1.9,2.2
					c-1.7-0.5-3.6,1.4-3.1,3.2c0.5,1.7,3,2.4,4.4,1.2c0.5,1.1,1.8,1.8,3,1.8c1.2,0,2.4-0.5,3.5-1.2c-0.3,0.6-0.5,1.5-0.1,2.3
					c0.3,0.7,0.6,1.3,1.7,1.1c0,0-0.1,1.7,0.3,1.6C379.5,289,379.5,288.3,379.5,288.3z"/>
			</g>
			<g>
				<path class="st7" d="M357.5,330.9c4.4-6.3,6.7-11.3,10.6-18l5.3-13.2c0,0-1.8,0.1-2.1,0.1c-1.5,0.1-3,0.3-4.4,0.8
					c-2,0.8-4.1,2.1-5.1,4.1c-0.9,1.8-1.4,3.7-2.2,5.5c-0.8,2.1-1.7,4.1-2.6,6.1c-1.8,4-3.6,8-5.1,12.2"/>
			</g>
			<polygon class="st34" points="367.3,314.2 366.6,309.9 361.3,321.4 363.1,321.8 			"/>
			<g>
				<g>
					<path d="M392.6,305.7c0.4,8.2,0.2,16.4-0.7,24.5c-0.3,2.3-0.7,4.6-0.9,6.9c0,0.3,0.4,0.4,0.5,0.1c0.5-2,0.7-4,1-6
						c0.3-2,0.5-4.1,0.6-6.1c0.3-4.1,0.4-8.2,0.4-12.3c0-2.4-0.2-4.7-0.3-7.1C393.1,305.4,392.6,305.3,392.6,305.7L392.6,305.7z"/>
				</g>
			</g>
			<g>
				
					<rect x="345.3" y="336.3" transform="matrix(-1 -1.224647e-16 1.224647e-16 -1 731.3301 674.1458)" class="st46" width="40.7" height="1.5"/>
				<path class="st46" d="M338.1,337.8h32.6l-5.8-19c-0.3-1.1-1.3-1.8-2.4-1.8h-28.5c-1.1,0-1.9,1.1-1.6,2.1L338.1,337.8z"/>
				<path class="st47" d="M337.7,337.8h32.1l-5.8-19c-0.3-1.1-1.3-1.8-2.4-1.8H333c-1.1,0-1.9,1.1-1.6,2.1l5.6,18.2
					C337.1,337.6,337.4,337.8,337.7,337.8z"/>
				<path class="st46" d="M352.6,327.6c0,1.8-1.5,3.3-3.3,3.3c-1.8,0-3.3-1.5-3.3-3.3c0-1.8,1.5-3.3,3.3-3.3
					C351.1,324.3,352.6,325.8,352.6,327.6z"/>
			</g>
			<g>
				<path class="st34" d="M388.2,309.1c-1.7,7.6-2.2,16.3-2.7,21.8c-6.3,0.5-8.1,2.9-13.8,5.4c0,0-4.6-0.8-5,1
					c-0.3,1,5.3,1.8,5.3,1.8c5.3,0,18.3-2.5,19.2-2.7c1-0.3,4.9-19.6,5-29.3c0-1.4,0-2.9-0.9-4c-0.5-0.6-1.1-1-1.7-1.3
					c-3.8-1.9-6.5-2.4-10.8-2.7"/>
			</g>
			<g>
				<path class="st37" d="M372.5,337.5c-0.6-0.8-1.8-0.9-2.8-0.9c-0.8,0-1.5,0.1-2.3,0.2c-0.3,0-0.7,0.1-0.8,0.5
					c0,0.4,1.7,0,2.5,0.3c-1.7,0.1-3.5,0.2-5.2,0.1c-0.2,0-0.4,0-0.6,0.1c-0.2,0.1-0.4,0.3-0.3,0.5c0,0.2,0.1,0.3,0.2,0.4
					c0.5,0.4,1.1,0.6,1.8,0.7c2.7,0.5,5.5,0.4,7.9-0.7"/>
			</g>
			<g>
				<path class="st7" d="M388.2,309.1c-0.1,8.1-1.3,15.5-1.1,23.6c-6.3,0.5-9.5,1.7-15.2,4.3c0,0-0.3,1.1,0.2,2.1
					c0.4,0.2,18.8-0.6,20.3-2c1.4-1.3,3.8-20.3,3.9-30c0-1.4,0-2.9-0.9-4c-0.5-0.6-1.1-1-1.7-1.3c-3.8-1.9-6.5-2.4-10.8-2.7"/>
			</g>
		</g>
	</g>
</g>
<g id="white">
	<g id="bino_00000002365822376153815850000018082914523946220433_">
		<g>
			<rect x="332.4" y="226.8" class="st5" width="1.2" height="1.2"/>
			<rect x="331.8" y="222.6" class="st5" width="2.5" height="0.1"/>
			<rect x="331.8" y="221.8" class="st5" width="2.5" height="0.1"/>
			<rect x="332.1" y="222.8" class="st5" width="1.7" height="3.3"/>
			<path class="st5" d="M331.9,221.9v0.6h2.1v-0.6H331.9z M333,222.5c-0.1,0-0.3-0.1-0.3-0.3c0-0.1,0.1-0.3,0.3-0.3
				c0.1,0,0.3,0.1,0.3,0.3C333.2,222.3,333.1,222.5,333,222.5z"/>
			<rect x="331.8" y="226.1" class="st5" width="2.5" height="0.1"/>
			<rect x="331.8" y="226.6" class="st5" width="2.5" height="0.1"/>
			<rect x="331.8" y="226.3" class="st5" width="2.4" height="0.3"/>
			<rect x="331.7" y="221.6" class="st5" width="2.5" height="0.1"/>
			<rect x="334.1" y="221.9" class="st5" width="0.1" height="0.6"/>
			<rect x="331.8" y="221.9" class="st5" width="0.1" height="0.6"/>
			<path class="st5" d="M333.2,222.2c0,0.1-0.1,0.2-0.2,0.2c-0.1,0-0.2-0.1-0.2-0.2c0-0.1,0.1-0.2,0.2-0.2
				C333.1,222,333.2,222.1,333.2,222.2z"/>
		</g>
		<g>
			<polygon class="st5" points="334.6,223.2 334.6,226.3 334.3,226.3 334.3,226.1 334,226.1 334,223.2 			"/>
			<g>
				<path class="st5" d="M334.9,223.2v3.3h6.1v-3.3H334.9z M335.4,226.1h-0.3v-0.4h0.3V226.1z M335.4,225.3h-0.3v-0.4h0.3V225.3z
					 M335.4,224.5h-0.3v-0.4h0.3V224.5z M335.4,223.7h-0.3v-0.4h0.3V223.7z M335.8,226.1h-0.3v-0.4h0.3V226.1z M335.8,225.3h-0.3
					v-0.4h0.3V225.3z M335.8,224.5h-0.3v-0.4h0.3V224.5z M335.8,223.7h-0.3v-0.4h0.3V223.7z M336.3,226.1H336v-0.4h0.3V226.1z
					 M336.3,225.3H336v-0.4h0.3V225.3z M336.3,224.5H336v-0.4h0.3V224.5z M336.3,223.7H336v-0.4h0.3V223.7z M336.7,226.1h-0.3v-0.4
					h0.3V226.1z M336.7,225.3h-0.3v-0.4h0.3V225.3z M336.7,224.5h-0.3v-0.4h0.3V224.5z M336.7,223.7h-0.3v-0.4h0.3V223.7z
					 M337.2,226.1h-0.3v-0.4h0.3V226.1z M337.2,225.3h-0.3v-0.4h0.3V225.3z M337.2,224.5h-0.3v-0.4h0.3V224.5z M337.2,223.7h-0.3
					v-0.4h0.3V223.7z M337.6,226.1h-0.3v-0.4h0.3V226.1z M337.6,225.3h-0.3v-0.4h0.3V225.3z M337.6,224.5h-0.3v-0.4h0.3V224.5z
					 M337.6,223.7h-0.3v-0.4h0.3V223.7z M338.1,226.1h-0.3v-0.4h0.3V226.1z M338.1,225.3h-0.3v-0.4h0.3V225.3z M338.1,224.5h-0.3
					v-0.4h0.3V224.5z M338.1,223.7h-0.3v-0.4h0.3V223.7z M338.5,226.1h-0.3v-0.4h0.3V226.1z M338.5,225.3h-0.3v-0.4h0.3V225.3z
					 M338.5,224.5h-0.3v-0.4h0.3V224.5z M338.5,223.7h-0.3v-0.4h0.3V223.7z M339,226.1h-0.3v-0.4h0.3V226.1z M339,225.3h-0.3v-0.4
					h0.3V225.3z M339,224.5h-0.3v-0.4h0.3V224.5z M339,223.7h-0.3v-0.4h0.3V223.7z M339.4,226.1h-0.3v-0.4h0.3V226.1z M339.4,225.3
					h-0.3v-0.4h0.3V225.3z M339.4,224.5h-0.3v-0.4h0.3V224.5z M339.4,223.7h-0.3v-0.4h0.3V223.7z M339.9,226.1h-0.3v-0.4h0.3V226.1z
					 M339.9,225.3h-0.3v-0.4h0.3V225.3z M339.9,224.5h-0.3v-0.4h0.3V224.5z M339.9,223.7h-0.3v-0.4h0.3V223.7z M340.3,226.1h-0.3
					v-0.4h0.3V226.1z M340.3,225.3h-0.3v-0.4h0.3V225.3z M340.3,224.5h-0.3v-0.4h0.3V224.5z M340.3,223.7h-0.3v-0.4h0.3V223.7z
					 M340.8,226.1h-0.3v-0.4h0.3V226.1z M340.8,225.3h-0.3v-0.4h0.3V225.3z M340.8,224.5h-0.3v-0.4h0.3V224.5z M340.8,223.7h-0.3
					v-0.4h0.3V223.7z"/>
				<path class="st5" d="M342.7,224.9c0,0.5,0,1.1-0.1,1.6h-0.1v-3.3h0.1C342.7,223.8,342.7,224.3,342.7,224.9z"/>
				<g>
					<path class="st5" d="M334.3,226.6v1h8.1c0.1-0.3,0.2-0.7,0.2-1H334.3z M335.3,227.2h-0.1v-0.6h0.1V227.2z M335.7,227.2h-0.1
						v-0.6h0.1V227.2z M336.2,227.2h-0.2v-0.6h0.2V227.2z M336.6,227.2h-0.1v-0.6h0.1V227.2z M337.1,227.2H337v-0.6h0.1V227.2z
						 M337.5,227.2h-0.1v-0.6h0.1V227.2z M338,227.2h-0.1v-0.6h0.1V227.2z M338.4,227.2h-0.1v-0.6h0.1V227.2z M338.9,227.2h-0.1
						v-0.6h0.1V227.2z M339.3,227.2h-0.1v-0.6h0.1V227.2z M339.8,227.2h-0.1v-0.6h0.1V227.2z M340.2,227.2H340v-0.6h0.1V227.2z
						 M340.7,227.2h-0.1v-0.6h0.1V227.2z M341.6,227.2h-0.1v-0.6h0.1V227.2z M342,227.2h-0.1v-0.6h0.1V227.2z"/>
					<path class="st5" d="M342.3,227.7c0,0.1-0.1,0.2-0.1,0.3h-8v-0.3H342.3z"/>
				</g>
				<rect x="341.2" y="223.2" class="st5" width="1" height="3.1"/>
				<path class="st5" d="M342.6,223.1H334v-0.3h8.5C342.5,222.9,342.5,223,342.6,223.1z"/>
				<path class="st5" d="M342.5,222.7h-8.2v-0.1h8.2C342.5,222.6,342.5,222.7,342.5,222.7z"/>
				<rect x="341.1" y="223.2" class="st5" width="0.1" height="3.1"/>
				<path class="st5" d="M342.3,222h-8.1v-0.1h8C342.3,221.9,342.3,222,342.3,222z"/>
				<path class="st5" d="M342.4,222.5h-8.2v-0.4h8.1C342.4,222.2,342.4,222.4,342.4,222.5z"/>
				<rect x="333.7" y="226.8" class="st5" width="0.3" height="0.8"/>
				<rect x="333.7" y="227.7" class="st5" width="0.4" height="0.3"/>
				<rect x="333.9" y="222.8" class="st5" width="0.1" height="3.3"/>
				<rect x="342.3" y="223.2" class="st5" width="0.1" height="3.1"/>
				<rect x="341.1" y="226.4" class="st5" width="1.4" height="0.1"/>
				<rect x="334.2" y="226.4" class="st5" width="0.6" height="0.1"/>
				<rect x="334.7" y="223.2" class="st5" width="0.1" height="3.1"/>
			</g>
		</g>
		<g>
			<polygon class="st5" points="331.9,223.2 331.9,226.1 331.7,226.1 331.7,226.3 331.4,226.3 331.4,223.2 			"/>
			<g>
				<path class="st5" d="M325,223.2v3.3h6.1v-3.3H325z M325.5,226.1h-0.3v-0.4h0.3V226.1z M325.5,225.3h-0.3v-0.4h0.3V225.3z
					 M325.5,224.5h-0.3v-0.4h0.3V224.5z M325.5,223.7h-0.3v-0.4h0.3V223.7z M326,226.1h-0.3v-0.4h0.3V226.1z M326,225.3h-0.3v-0.4
					h0.3V225.3z M326,224.5h-0.3v-0.4h0.3V224.5z M326,223.7h-0.3v-0.4h0.3V223.7z M326.4,226.1h-0.3v-0.4h0.3V226.1z M326.4,225.3
					h-0.3v-0.4h0.3V225.3z M326.4,224.5h-0.3v-0.4h0.3V224.5z M326.4,223.7h-0.3v-0.4h0.3V223.7z M326.9,226.1h-0.3v-0.4h0.3V226.1z
					 M326.9,225.3h-0.3v-0.4h0.3V225.3z M326.9,224.5h-0.3v-0.4h0.3V224.5z M326.9,223.7h-0.3v-0.4h0.3V223.7z M327.3,226.1H327
					v-0.4h0.3V226.1z M327.3,225.3H327v-0.4h0.3V225.3z M327.3,224.5H327v-0.4h0.3V224.5z M327.3,223.7H327v-0.4h0.3V223.7z
					 M327.8,226.1h-0.3v-0.4h0.3V226.1z M327.8,225.3h-0.3v-0.4h0.3V225.3z M327.8,224.5h-0.3v-0.4h0.3V224.5z M327.8,223.7h-0.3
					v-0.4h0.3V223.7z M328.2,226.1h-0.3v-0.4h0.3V226.1z M328.2,225.3h-0.3v-0.4h0.3V225.3z M328.2,224.5h-0.3v-0.4h0.3V224.5z
					 M328.2,223.7h-0.3v-0.4h0.3V223.7z M328.7,226.1h-0.3v-0.4h0.3V226.1z M328.7,225.3h-0.3v-0.4h0.3V225.3z M328.7,224.5h-0.3
					v-0.4h0.3V224.5z M328.7,223.7h-0.3v-0.4h0.3V223.7z M329.1,226.1h-0.3v-0.4h0.3V226.1z M329.1,225.3h-0.3v-0.4h0.3V225.3z
					 M329.1,224.5h-0.3v-0.4h0.3V224.5z M329.1,223.7h-0.3v-0.4h0.3V223.7z M329.6,226.1h-0.3v-0.4h0.3V226.1z M329.6,225.3h-0.3
					v-0.4h0.3V225.3z M329.6,224.5h-0.3v-0.4h0.3V224.5z M329.6,223.7h-0.3v-0.4h0.3V223.7z M330,226.1h-0.3v-0.4h0.3V226.1z
					 M330,225.3h-0.3v-0.4h0.3V225.3z M330,224.5h-0.3v-0.4h0.3V224.5z M330,223.7h-0.3v-0.4h0.3V223.7z M330.5,226.1h-0.3v-0.4h0.3
					V226.1z M330.5,225.3h-0.3v-0.4h0.3V225.3z M330.5,224.5h-0.3v-0.4h0.3V224.5z M330.5,223.7h-0.3v-0.4h0.3V223.7z M330.9,226.1
					h-0.3v-0.4h0.3V226.1z M330.9,225.3h-0.3v-0.4h0.3V225.3z M330.9,224.5h-0.3v-0.4h0.3V224.5z M330.9,223.7h-0.3v-0.4h0.3V223.7z
					"/>
				<path class="st5" d="M323.5,223.2v3.3h-0.1c-0.1-0.5-0.1-1-0.1-1.6C323.3,224.3,323.3,223.8,323.5,223.2L323.5,223.2z"/>
				<g>
					<path class="st5" d="M323.4,226.6c0.1,0.3,0.1,0.7,0.2,1h8.1v-1H323.4z M324.1,227.2H324v-0.6h0.1V227.2z M324.5,227.2h-0.1
						v-0.6h0.1V227.2z M325.4,227.2h-0.1v-0.6h0.1V227.2z M326,227.2h-0.1v-0.6h0.1V227.2z M326.3,227.2h-0.1v-0.6h0.1V227.2z
						 M326.9,227.2h-0.1v-0.6h0.1V227.2z M327.2,227.2h-0.1v-0.6h0.1V227.2z M327.8,227.2h-0.2v-0.6h0.2V227.2z M328.1,227.2H328
						v-0.6h0.1V227.2z M328.7,227.2h-0.1v-0.6h0.1V227.2z M329,227.2h-0.1v-0.6h0.1V227.2z M329.5,227.2h-0.1v-0.6h0.1V227.2z
						 M329.9,227.2h-0.1v-0.6h0.1V227.2z M330.4,227.2h-0.1v-0.6h0.1V227.2z M330.8,227.2h-0.1v-0.6h0.1V227.2z"/>
					<path class="st5" d="M331.7,227.7v0.3h-8c0-0.1-0.1-0.2-0.1-0.3H331.7z"/>
				</g>
				<rect x="323.7" y="223.2" class="st5" width="1" height="3.1"/>
				<path class="st5" d="M331.9,222.8v0.3h-8.5c0-0.1,0-0.2,0.1-0.3H331.9z"/>
				<path class="st5" d="M331.7,222.6v0.1h-8.2c0,0,0-0.1,0-0.1H331.7z"/>
				<rect x="324.8" y="223.2" class="st5" width="0.1" height="3.1"/>
				<path class="st5" d="M331.8,221.9v0.1h-8.1c0,0,0-0.1,0-0.1H331.8z"/>
				<path class="st5" d="M331.8,222.1v0.4h-8.2c0-0.1,0.1-0.3,0.1-0.4H331.8z"/>
				<rect x="331.9" y="226.8" class="st5" width="0.3" height="0.8"/>
				<rect x="331.9" y="227.7" class="st5" width="0.4" height="0.3"/>
				<rect x="332" y="222.8" class="st5" width="0.1" height="3.3"/>
				<rect x="323.6" y="223.2" class="st5" width="0.1" height="3.1"/>
				<rect x="323.6" y="226.4" class="st5" width="1.4" height="0.1"/>
				<rect x="331.2" y="226.4" class="st5" width="0.6" height="0.1"/>
				<rect x="331.2" y="223.2" class="st5" width="0.1" height="3.1"/>
			</g>
		</g>
	</g>
	<path class="st5" d="M333,238c-7.2,0-13.1-5.9-13.1-13.1c0-7.2,5.9-13.1,13.1-13.1s13.1,5.9,13.1,13.1
		C346.1,232.2,340.2,238,333,238z M333,212.2c-7,0-12.8,5.7-12.8,12.8s5.7,12.8,12.8,12.8s12.8-5.7,12.8-12.8S340,212.2,333,212.2z"
		/>
	<g>
		<polygon class="st5" points="338.4,235 338,234.7 338.1,235.2 		"/>
		<path class="st5" d="M334.3,214.1c0.2,0,0.3-0.1,0.4-0.3c0-0.2-0.1-0.4-0.3-0.4c-0.2,0-0.3,0.1-0.4,0.3
			C333.9,213.9,334.1,214.1,334.3,214.1z"/>
		<path class="st5" d="M331,235.7l-0.2,0l-0.1,0.7l0.2,0c0.2,0,0.4-0.1,0.4-0.3C331.2,235.9,331.1,235.7,331,235.7z"/>
		<polygon class="st5" points="331.8,236.3 332.1,236.3 332,235.9 		"/>
		<polygon class="st5" points="322.8,219.6 323.1,219.9 323.2,219.7 		"/>
		<path class="st5" d="M322.8,223.3c0.8-4.9,5.1-8.7,10.2-8.7c5.1,0,9.4,3.8,10.2,8.7c0.1,0.3,0.3,0.5,0.6,0.5h1.4
			c-0.3-2.8-1.5-5.5-3.5-7.5c-2.3-2.3-5.3-3.5-8.5-3.6c-3.3,0-6.5,1.2-8.8,3.5c-2.1,2.1-3.3,4.7-3.6,7.6h1.4
			C322.5,223.8,322.7,223.6,322.8,223.3z M344.5,222.7l-0.9,0.2l0-0.2l0.9-0.2L344.5,222.7z M344.4,222.3l-0.1,0l-0.1-0.3l-0.8,0.2
			l0-0.1l0.8-0.2l-0.1-0.3l0.1,0L344.4,222.3z M344.2,221.4l-0.1,0l-0.1-0.4l-0.2,0.1l0.1,0.4l-0.1,0l-0.1-0.4l-0.2,0.1l0.1,0.4
			l-0.1,0l-0.2-0.5l0.9-0.3L344.2,221.4z M343.9,220.6l-0.1,0.1l-0.1-0.2l-0.7,0.3l-0.1-0.1l0.7-0.3l-0.1-0.2l0.1-0.1L343.9,220.6z
			 M343.5,219.7l-0.8,0.4l-0.1-0.1l0.8-0.4L343.5,219.7z M342.8,218.9c0.1-0.1,0.3,0,0.4,0.1c0.1,0.1,0.1,0.3,0,0.4l-0.1-0.1
			c0-0.1,0.1-0.1,0-0.2c0-0.1-0.1-0.1-0.2-0.1c-0.1,0-0.1,0.1,0,0.2c0,0.2,0.1,0.3-0.1,0.4c-0.1,0.1-0.3,0-0.4-0.1
			c-0.1-0.2-0.1-0.3,0-0.4l0.1,0.1c-0.1,0.1-0.1,0.2,0,0.3c0.1,0.1,0.1,0.1,0.2,0.1c0.1,0,0.1-0.1,0-0.3
			C342.6,219.1,342.6,219,342.8,218.9z M342.7,218.3c0.1,0.1,0.1,0.3-0.1,0.4c-0.1,0.1-0.2,0.1-0.3,0l-0.2,0.4l-0.1-0.1l0.2-0.4
			l-0.1-0.1l-0.3,0.2l-0.1-0.1l0.8-0.5L342.7,218.3z M342.2,217.7l-0.1,0.1l-0.3-0.3l-0.2,0.2l0.2,0.3l-0.1,0.1l-0.2-0.3l-0.2,0.2
			l0.3,0.3l-0.1,0.1l-0.4-0.4l0.7-0.6L342.2,217.7z M341.2,216.6l-0.4,0.7l0.7-0.3l0.1,0.1l-0.9,0.4l-0.1-0.1l0.4-0.9L341.2,216.6z
			 M340.9,216.3l-0.6,0.7l-0.1-0.1l0.6-0.7L340.9,216.3z M340.1,215.6l0,0.8l0.4-0.5l0.1,0.1l-0.6,0.7l-0.1-0.1l0-0.8l-0.4,0.5
			l-0.1-0.1L340.1,215.6L340.1,215.6z M338.8,215.4l0.3-0.5l0.1,0.1l-0.3,0.5c-0.1,0.1-0.1,0.2,0.1,0.3c0.1,0.1,0.2,0,0.3,0l0.3-0.5
			l0.1,0.1l-0.3,0.5c-0.1,0.2-0.3,0.2-0.5,0.1C338.7,215.8,338.7,215.6,338.8,215.4z M338.2,214.4l-0.1,1l-0.1-0.1l0-0.2l-0.4-0.2
			l-0.1,0.1l-0.2-0.1l0.7-0.7L338.2,214.4z M336.8,213.8l0.1,0.1l-0.1,0.4l0.5-0.3l0.2,0.1l-0.5,0.3l0.2,0.6l-0.2-0.1l-0.2-0.5
			l-0.2,0.4l-0.1-0.1L336.8,213.8z M336.3,213.7l0.1,0l-0.3,0.9l-0.1,0L336.3,213.7z M335,213.8c0.1-0.3,0.3-0.4,0.6-0.4
			c0.2,0,0.3,0.2,0.3,0.3l-0.1,0c0-0.1-0.1-0.2-0.2-0.2c-0.2,0-0.4,0.1-0.4,0.3c0,0.2,0.1,0.4,0.3,0.4c0.2,0,0.3,0,0.3-0.1l-0.3-0.1
			l0-0.1l0.5,0.1l0,0.1c-0.1,0.2-0.3,0.4-0.5,0.3C335.1,214.4,335,214.1,335,213.8z M333.8,213.7c0-0.3,0.3-0.5,0.5-0.4
			c0.3,0,0.5,0.3,0.4,0.5c0,0.3-0.3,0.5-0.5,0.4C334,214.2,333.8,214,333.8,213.7z M333.1,213.2c0.2,0,0.3,0.1,0.4,0.2l-0.1,0.1
			c0-0.1-0.2-0.2-0.3-0.2c-0.2,0-0.3,0.1-0.3,0.3c0,0.2,0.1,0.3,0.3,0.3c0.2,0,0.3-0.1,0.3-0.2l-0.3,0l0-0.1l0.5,0l0,0.1
			c0,0.3-0.2,0.4-0.5,0.4c-0.3,0-0.5-0.2-0.5-0.5C332.6,213.4,332.8,213.2,333.1,213.2z M331.9,213.3l0.2,0l0.4,0.9l-0.2,0l-0.1-0.2
			l-0.4,0l0,0.2l-0.2,0L331.9,213.3z M330.9,213.4c0.3,0,0.5,0.1,0.5,0.4c0,0.3-0.1,0.5-0.4,0.5l-0.4,0.1l-0.2-0.9L330.9,213.4z
			 M330.3,213.5l0,0.1l-0.4,0.1l0.1,0.2l0.4-0.1l0,0.1l-0.4,0.1l0.1,0.2l0.4-0.1l0,0.1l-0.5,0.1l-0.2-0.9L330.3,213.5z M329.1,213.9
			c0.2-0.1,0.3,0,0.4,0.2c0.1,0.2,0,0.3-0.2,0.4l-0.2,0.1l0.1,0.3l-0.1,0.1l-0.3-0.9L329.1,213.9z M328.1,214.3l0.1,0.1l-0.2,0.1
			l0.4,0.7l-0.1,0.1l-0.4-0.7l-0.2,0.1l-0.1-0.1L328.1,214.3z M327.1,214.8l0.8,0.6l-0.1,0.1l-0.2-0.1l-0.3,0.2l0,0.2l-0.1,0.1
			l-0.2-1L327.1,214.8z M326.1,215.4l0.5,0.6l0.3-0.2l0.1,0.1l-0.4,0.3l-0.5-0.8L326.1,215.4z M325.3,216.1l0.7,0.4l-0.3-0.7
			l0.1-0.1l0.4,0.9l-0.1,0.1l-0.9-0.5L325.3,216.1z M324.8,216.5l0.9,0.4l-0.1,0.1l-0.2-0.1l-0.3,0.3l0.1,0.2l-0.1,0.1l-0.4-0.9
			L324.8,216.5z M324,217.4c0.2-0.2,0.4-0.2,0.6,0c0.2,0.2,0.2,0.4,0.1,0.6l-0.2,0.3l-0.7-0.6L324,217.4z M323,218.8l0.4,0l-0.2-0.3
			l0.1-0.1l0.2,0.5l0.6,0L324,219l-0.4,0l0.2,0.4l-0.1,0.1l-0.2-0.5l-0.5,0L323,218.8z M322.6,219.4l1,0.1l-0.1,0.1l-0.2,0l-0.2,0.4
			l0.1,0.1l-0.1,0.1l-0.7-0.7L322.6,219.4z M322.3,220.1l0.1,0l0.4,0.6l0.2-0.4l0.1,0.1l-0.2,0.6l-0.1,0l-0.4-0.6l-0.2,0.4l-0.1-0.1
			L322.3,220.1z M322,220.9l0.1,0l0.5,0.6l0.1-0.4l0.1,0l-0.2,0.6l-0.1,0l-0.5-0.6l-0.1,0.4l-0.1,0L322,220.9z M321.7,221.8l0.9,0.2
			l0,0.1l-0.9-0.2L321.7,221.8z M321.6,222.3l0.6,0.1c0.2,0,0.3,0.2,0.2,0.4c0,0.1-0.1,0.2-0.2,0.3l0-0.1c0.1,0,0.1-0.1,0.1-0.1
			c0-0.1,0-0.2-0.1-0.2l-0.6-0.1L321.6,222.3z"/>
		<polygon class="st5" points="338,214.5 337.7,214.8 337.9,215 		"/>
		<polygon class="st5" points="322.8,230.2 323.2,229.8 322.7,229.9 		"/>
		<path class="st5" d="M334.3,235.8c-0.2,0-0.3,0.2-0.3,0.4s0.2,0.3,0.4,0.3c0.2,0,0.3-0.2,0.3-0.4S334.5,235.8,334.3,235.8z"/>
		<polygon class="st5" points="327.4,215.3 327.1,215 327.2,215.4 		"/>
		<polygon class="st5" points="324.9,216.7 325.1,217.1 325.3,216.9 		"/>
		<path class="st5" d="M329.2,235.2l-0.2-0.1l-0.1,0.3l0.2,0.1c0.1,0,0.2,0,0.2-0.1C329.4,235.3,329.3,235.2,329.2,235.2z"/>
		<polygon class="st5" points="326.3,234.2 326.5,233.8 326.1,234 		"/>
		<path class="st5" d="M331.1,214.2c0.2,0,0.3-0.2,0.2-0.4c0-0.2-0.2-0.3-0.4-0.3l-0.2,0l0.1,0.6L331.1,214.2z"/>
		<path class="st5" d="M329.4,214.1c0-0.1-0.1-0.1-0.2-0.1l-0.2,0.1l0.1,0.3l0.2-0.1C329.4,214.3,329.4,214.2,329.4,214.1z"/>
		<path class="st5" d="M343.2,226.6c-0.8,4.9-5.1,8.7-10.2,8.7c-5.1,0-9.4-3.8-10.2-8.7c-0.1-0.3-0.3-0.5-0.6-0.5h-1.4
			c0.3,2.9,1.5,5.5,3.6,7.6c2.3,2.3,5.5,3.6,8.8,3.5c3.2,0,6.2-1.3,8.5-3.6c2-2,3.3-4.7,3.5-7.5h-1.4
			C343.5,226.1,343.3,226.3,343.2,226.6z M321.4,227c0-0.1,0-0.3,0.1-0.4l0.1,0.1c-0.1,0-0.1,0.1-0.1,0.2c0,0.1,0.1,0.2,0.2,0.2
			l0.7-0.1l0,0.2l-0.7,0.1C321.5,227.3,321.4,227.2,321.4,227z M321.5,227.7l1-0.2l0,0.2l-1,0.2L321.5,227.7z M321.6,228.1l0.1,0
			l0.8,0.2l-0.1-0.4l0.2,0l0.2,0.6l-0.1,0l-0.8-0.2l0.1,0.5l-0.2,0L321.6,228.1z M321.9,229l0.1-0.1l0.8,0.2l-0.2-0.4l0.1-0.1
			l0.2,0.6l-0.1,0.1l-0.8-0.2l0.2,0.4l-0.1,0.1L321.9,229z M322.6,230.5l0.2-0.2l-0.2-0.4l-0.2,0l-0.1-0.2l1.1-0.1l0.1,0.2l-0.8,0.8
			L322.6,230.5z M323.1,231.3l0.2-0.6l-0.4,0.3l-0.1-0.1l0.9-0.5l0.1,0.1l-0.4,0.2l0.6,0.1l0.1,0.2l-0.6-0.1l-0.2,0.6L323.1,231.3z
			 M323.8,232.3l-0.1-0.1l0.4-0.3l-0.3-0.4l-0.4,0.3l-0.1-0.1l0.8-0.6l0.1,0.1l-0.3,0.3l0.3,0.4l0.3-0.3l0.1,0.1L323.8,232.3z
			 M325,233.3c-0.1,0.1-0.3,0.1-0.5,0c-0.1-0.1-0.2-0.3-0.1-0.5l0.2,0c0,0.1,0,0.2,0.1,0.3c0.1,0.1,0.2,0.1,0.2,0
			c0.1-0.1,0-0.1,0-0.3c-0.1-0.1-0.1-0.3,0-0.4c0.1-0.1,0.3-0.1,0.4,0c0.1,0.1,0.1,0.3,0.1,0.4l-0.2,0c0-0.1,0-0.2,0-0.3
			c-0.1-0.1-0.1-0.1-0.2,0c-0.1,0.1,0,0.1,0,0.3C325.1,233,325.2,233.1,325,233.3z M325.2,233.8l0.6-0.7l-0.2-0.2l0.1-0.1l0.6,0.5
			l-0.1,0.1l-0.2-0.2l-0.6,0.7L325.2,233.8z M326.4,234.7l-0.1-0.1l0.1-0.2l-0.4-0.3l-0.2,0.1l-0.1-0.1l0.9-0.6l0.2,0.1L326.4,234.7
			z M326.8,235l-0.1-0.1l0.5-0.7l-0.2-0.2l0.1-0.1l0.6,0.4l-0.1,0.1l-0.2-0.2L326.8,235z M328.2,234.8l-0.4-0.2l-0.1,0.2l0.4,0.2
			l-0.1,0.1l-0.4-0.2l-0.1,0.2l0.4,0.2l-0.1,0.1l-0.6-0.3l0.5-0.9l0.5,0.3L328.2,234.8z M329.5,235.5c-0.1,0.2-0.3,0.3-0.4,0.2
			l-0.2-0.1l-0.1,0.3l-0.2-0.1l0.4-1l0.4,0.1C329.5,235.1,329.5,235.3,329.5,235.5z M330.3,235.5l-0.4-0.1l-0.1,0.3l0.4,0.1l0,0.2
			l-0.4-0.1l-0.1,0.3l0.4,0.1l0,0.2l-0.6-0.2l0.3-1l0.6,0.2L330.3,235.5z M331.4,236.1c-0.1,0.3-0.3,0.5-0.6,0.4l-0.4-0.1l0.2-1
			l0.4,0.1C331.3,235.6,331.4,235.8,331.4,236.1z M332.2,236.7l-0.1-0.2l-0.4,0l-0.1,0.2l-0.2,0l0.5-1l0.2,0l0.3,1.1L332.2,236.7z
			 M333.1,236.8c-0.3,0-0.6-0.2-0.6-0.5c0-0.3,0.2-0.5,0.5-0.5c0.2,0,0.4,0.1,0.5,0.2l-0.1,0.1c-0.1-0.1-0.2-0.2-0.3-0.2
			c-0.2,0-0.4,0.2-0.4,0.4c0,0.2,0.2,0.4,0.4,0.4c0.2,0,0.3-0.1,0.3-0.2l-0.3,0l0-0.2l0.5,0l0,0.1
			C333.6,236.5,333.4,236.7,333.1,236.8z M334.4,236.7c-0.3,0-0.6-0.2-0.6-0.5c0-0.3,0.2-0.6,0.5-0.6c0.3,0,0.6,0.2,0.6,0.5
			C334.9,236.4,334.7,236.6,334.4,236.7z M335.7,236.4c-0.3,0.1-0.6-0.1-0.7-0.4c-0.1-0.3,0.1-0.6,0.4-0.6c0.2,0,0.4,0,0.5,0.1
			l-0.1,0.1c-0.1-0.1-0.2-0.1-0.3-0.1c-0.2,0-0.3,0.2-0.3,0.4c0,0.2,0.2,0.3,0.5,0.3c0.2,0,0.3-0.2,0.3-0.3l-0.3,0.1l0-0.1l0.5-0.1
			l0,0.1C336.2,236.1,336,236.4,335.7,236.4z M336.5,236.2l-0.3-1l0.2-0.1l0.3,1L336.5,236.2z M337.4,235.9c-0.3,0.1-0.6,0-0.7-0.3
			c-0.1-0.3,0-0.6,0.3-0.7c0.2-0.1,0.4,0,0.5,0.1l-0.1,0.1c-0.1-0.1-0.2-0.1-0.3,0c-0.2,0.1-0.3,0.3-0.2,0.5
			c0.1,0.2,0.3,0.3,0.5,0.2c0.1,0,0.2-0.1,0.2-0.3l0.2,0C337.7,235.7,337.6,235.8,337.4,235.9z M338.7,235.3l-0.2-0.2l-0.4,0.2
			l0,0.2l-0.2,0.1l-0.1-1.1l0.2-0.1l0.8,0.7L338.7,235.3z M339,235.1l-0.5-0.9l0.1-0.1l0.5,0.7l0.4-0.2l0.1,0.1L339,235.1z
			 M340.4,234.1c-0.2,0.1-0.4,0.1-0.5,0l-0.4-0.5l0.1-0.1l0.4,0.5c0.1,0.1,0.2,0.1,0.3,0c0.1-0.1,0.1-0.2,0-0.3l-0.4-0.5l0.1-0.1
			l0.4,0.5C340.7,233.8,340.6,234,340.4,234.1z M341.5,233.2l-0.8-0.2l0.5,0.5l-0.1,0.1l-0.7-0.7l0.1-0.1l0.8,0.2l-0.5-0.5l0.1-0.1
			L341.5,233.2L341.5,233.2z M341.8,232.8l-0.8-0.7l0.1-0.1l0.8,0.7L341.8,232.8z M342.3,232.2l-1-0.3l0.1-0.1l0.8,0.3l-0.5-0.7
			l0.1-0.1l0.6,0.9L342.3,232.2z M342.7,231.6l-0.9-0.6l0.3-0.5l0.1,0.1l-0.2,0.4l0.2,0.1l0.2-0.3l0.1,0.1l-0.2,0.3l0.2,0.2l0.2-0.4
			l0.1,0.1L342.7,231.6z M343.5,230.3l-0.4,0l-0.1,0.2l0.3,0.2l-0.1,0.1l-0.9-0.5l0.2-0.4c0.1-0.2,0.3-0.2,0.4-0.1
			c0.1,0.1,0.2,0.2,0.2,0.3l0.5,0L343.5,230.3z M343.9,229.6c-0.1,0.2-0.2,0.3-0.4,0.3l0-0.2c0.1,0,0.2,0,0.3-0.2
			c0.1-0.1,0-0.2,0-0.2c-0.1,0-0.1,0-0.2,0.1c-0.1,0.1-0.2,0.2-0.4,0.2c-0.2-0.1-0.2-0.3-0.1-0.4c0.1-0.2,0.2-0.2,0.3-0.2l0,0.2
			c-0.1,0-0.2,0-0.2,0.1c0,0.1,0,0.2,0.1,0.2c0.1,0,0.1,0,0.2-0.1c0.1-0.1,0.2-0.3,0.4-0.2C343.9,229.2,343.9,229.4,343.9,229.6z
			 M344.1,229l-1-0.3l0.1-0.2l1,0.3L344.1,229z M344.3,228.3l-0.8-0.2l-0.1,0.3l-0.2,0l0.2-0.7l0.2,0l-0.1,0.3l0.8,0.2L344.3,228.3z
			 M344.6,227.2l0,0.2l-0.4-0.1l-0.7,0.2l0-0.2l0.5-0.2l-0.4-0.3l0-0.2l0.5,0.5L344.6,227.2z"/>
		<path class="st5" d="M324.6,217.5c-0.1-0.1-0.3-0.1-0.4,0l-0.1,0.2l0.5,0.4l0.1-0.2C324.7,217.8,324.7,217.6,324.6,217.5z"/>
		<path class="st5" d="M342.5,218.6c0.1-0.1,0.1-0.1,0-0.2l-0.1-0.2l-0.3,0.2l0.1,0.2C342.3,218.6,342.4,218.6,342.5,218.6z"/>
		<polygon class="st5" points="332,213.4 331.9,213.9 332.2,213.8 		"/>
		<path class="st5" d="M342.9,230c-0.1,0-0.2,0-0.2,0.1l-0.1,0.2l0.3,0.2l0.1-0.2C343,230.1,343,230,342.9,230z"/>
	</g>
	<g id="yulduz_00000128461392320742052940000014408717123174966197_">
		<polygon class="st5" points="344.5,224.3 344.3,224.1 344,224.3 343.7,224.3 343.7,224.7 343.4,224.9 343.7,225.2 343.7,225.5 
			344,225.5 344.3,225.8 344.5,225.5 344.9,225.5 344.9,225.2 345.1,224.9 344.9,224.7 344.9,224.3 		"/>
		<polygon class="st5" points="321.9,224.3 321.7,224.1 321.4,224.3 321.1,224.3 321.1,224.7 320.8,224.9 321.1,225.2 321.1,225.5 
			321.4,225.5 321.7,225.8 321.9,225.5 322.3,225.5 322.3,225.2 322.5,224.9 322.3,224.7 322.3,224.3 		"/>
	</g>
	<g>
		<path class="st5" d="M333,215.2c-4.1,0-7.7,2.6-9.1,6.2h18.1C340.7,217.8,337.1,215.2,333,215.2z M330.6,219.4
			c0,0.1,0,0.3-0.1,0.4c0,0.1-0.1,0.2-0.2,0.2c-0.1,0.1-0.1,0.1-0.2,0.1s-0.2,0-0.3,0h-0.1c0,0-0.1,0-0.1,0v-0.4c0,0,0.1,0,0.1,0
			h0.1c0.1,0,0.2,0,0.2-0.1c0.1,0,0.1-0.1,0.1-0.2v-2.2h0.5V219.4z M332.5,219.4c0,0.2-0.1,0.4-0.2,0.5c-0.1,0.1-0.3,0.2-0.6,0.2
			H331v-2.9h0.8c0.3,0,0.5,0.1,0.6,0.2c0.1,0.1,0.2,0.3,0.2,0.5V219.4z M334.4,218.3c0,0.2-0.1,0.4-0.2,0.5
			c-0.1,0.1-0.3,0.2-0.6,0.2h-0.2v1.1h-0.5v-2.9h0.8c0.3,0,0.5,0.1,0.6,0.2c0.1,0.1,0.2,0.3,0.2,0.5V218.3z M336.3,219.4
			c0,0.2-0.1,0.4-0.2,0.5c-0.1,0.1-0.3,0.2-0.6,0.2c-0.3,0-0.4-0.1-0.6-0.2c-0.1-0.1-0.2-0.3-0.2-0.5v-2.2h0.5v2.2
			c0,0.1,0,0.2,0.1,0.2c0,0,0.1,0.1,0.2,0.1c0.1,0,0.1,0,0.2-0.1c0,0,0.1-0.1,0.1-0.2v-2.2h0.5V219.4z"/>
		<path class="st5" d="M333.7,217.6h-0.2v1h0.2c0.1,0,0.1,0,0.2-0.1c0,0,0.1-0.1,0.1-0.2v-0.4c0-0.1,0-0.2-0.1-0.2
			C333.8,217.6,333.8,217.6,333.7,217.6z"/>
		<path class="st5" d="M333,234.7c4.1,0,7.6-2.6,9.1-6.2h-18.1C325.3,232.1,328.9,234.7,333,234.7z M336,229.6v3.2
			c0,0-1.8,0-2.4,0.3c1.1-0.5,2.1-0.6,2.1-0.6l0-2.9H336z M335.6,229.3c0,0,0,1.7,0,3.1c-1,0.1-2,0.6-2,0.6c0.8-0.6,1.7-0.8,1.7-0.8
			l0-2.9H335.6z M333.1,230.2c1-1,1.9-1.1,1.9-1.1s0,2.1,0,3c-1.3,0.1-1.9,1-1.9,1S333.1,231.1,333.1,230.2z M330.9,229.1
			c0,0,1,0.1,1.9,1.1c0,0.9,0,3,0,3s-0.6-0.9-1.9-1C330.9,231.2,330.9,229.1,330.9,229.1z M330.4,229.3h0.3l0,2.9
			c0,0,0.9,0.1,1.7,0.8c0,0-1.1-0.5-2-0.6C330.4,231.1,330.4,229.3,330.4,229.3z M329.9,229.6h0.3l0,2.9c0,0,1,0.1,2.1,0.6
			c-0.7-0.3-2.4-0.3-2.4-0.3V229.6z"/>
		<path class="st5" d="M331.8,217.6h-0.3v2h0.3c0.1,0,0.1,0,0.2-0.1c0,0,0.1-0.1,0.1-0.2v-1.5c0-0.1,0-0.2-0.1-0.2
			C331.9,217.6,331.8,217.6,331.8,217.6z"/>
	</g>
	<g>
		<path class="st5" d="M333.9,230.8v0.1l-0.3,0.7h-0.2l0.3-0.6h-0.3v-0.2H333.9z"/>
		<path class="st5" d="M334.7,231.4L334.7,231.4l-0.1,0.1h-0.2v-0.1h-0.4v-0.1l0.3-0.5h0.2l-0.3,0.5h0.2v-0.2h0.2v0.2h0.1V231.4z"/>
	</g>
	<g>
		<path class="st5" d="M331.7,230.8v0.8h-0.2v-0.6l-0.1,0l0-0.1l0.2-0.1H331.7z"/>
		<path class="st5" d="M332.5,231.2L332.5,231.2l-0.2,0.4h-0.2l0.2-0.3c-0.2,0-0.3-0.1-0.3-0.3c0-0.2,0.1-0.3,0.3-0.3
			c0.2,0,0.3,0.1,0.3,0.3C332.6,231.1,332.6,231.1,332.5,231.2z M332.3,231.2c0.1,0,0.1,0,0.1-0.1c0-0.1-0.1-0.1-0.1-0.1
			c-0.1,0-0.1,0-0.1,0.1C332.1,231.1,332.2,231.2,332.3,231.2z"/>
	</g>
</g>
</svg>
